<svg width="196" height="131" viewBox="0 0 196 131" fill="none" xmlns="http://www.w3.org/2000/svg">
<path d="M14.035 62.7126C13.9484 66.4839 13.8693 70.3811 14.6413 74.2423C15.6501 79.1898 20.5289 88.474 26.7307 92.297C28.1309 93.1672 29.5309 93.699 30.9031 93.9347C23.359 98.7848 16.4788 104.605 10.4703 111.236C6.86243 115.218 1.85534 121.375 0.0448819 128.809C-0.160941 129.67 0.360042 130.527 1.22054 130.733C1.35908 130.77 1.49612 130.782 1.62751 130.784C2.33327 130.767 2.97542 130.279 3.14976 129.567C4.40834 124.377 7.39536 119.387 12.8406 113.38C15.1842 110.791 17.6626 108.345 20.2646 106.023C20.0623 106.439 19.9093 106.918 19.8558 107.456C18.759 117.276 44.7542 112.742 49.1112 110.643C49.2925 110.551 49.4933 110.448 49.5777 110.256C49.7646 109.836 49.2512 109.443 48.8311 109.256C45.6438 107.882 29.3344 101.359 22.6635 103.936C25.9178 101.211 29.3463 98.698 32.9296 96.408C36.8683 93.8997 40.9956 91.673 45.2299 89.6317C44.873 91.0869 45.0666 93.1351 47.134 95.7018C52.2063 101.986 60.3587 105.671 66.3077 107.637C74.9204 110.497 84.0694 111.356 92.71 111.989C97.37 112.33 102.214 112.63 107.056 112.541C110.687 112.475 114.319 112.186 117.89 111.543C119.329 111.285 120.208 110.621 120.513 109.573C120.821 108.55 120.436 107.523 119.407 106.529C113.528 100.854 106.72 96.0934 99.1847 92.3504C86.7639 86.1846 73.0654 83.1245 59.3639 83.4622C62.104 82.3487 64.8513 81.27 67.5693 80.2082C73.128 78.0268 78.8695 75.7789 84.4213 73.3152C90.5982 70.5818 96.1495 67.689 101.13 64.6184C101.15 64.7888 101.184 64.9383 101.217 65.0625C101.848 67.4176 104.533 69.0032 108.206 69.2119C112.547 69.4511 116.883 69.5241 121.194 69.442C138.713 69.1124 155.999 66.1715 172.748 60.6781C173.145 60.5533 173.471 60.2612 173.666 59.9011C174.146 58.9737 174.155 57.9533 173.701 57.0315C172.876 55.3998 170.73 54.3876 168.957 54.1104C154.731 51.8494 140.228 51.791 125.856 53.9208C124.731 54.0893 123.452 54.2418 122.095 54.4141C119.358 54.745 116.311 55.1248 113.389 55.7192C119.842 50.1067 124.761 44.0006 128.181 37.303C133.757 26.4069 135.389 13.7281 136.843 2.54421C136.912 2.00998 136.714 1.48674 136.304 1.13774C135.904 0.78311 135.351 0.65978 134.835 0.80185C112.869 6.86083 96.7641 30.2377 98.9378 52.9113C99.171 55.366 99.7156 58.3826 101.725 60.4884C96.3177 64.0137 90.1237 67.3035 83.1155 70.3998C79.0632 72.193 74.8832 73.8776 70.7561 75.5187C70.9242 75.2915 71.1159 75.0377 71.3272 74.7726C73.882 71.5801 77.0695 68.92 79.3422 65.487C83.1185 59.7675 83.9233 52.4847 82.9552 45.6921C81.9871 38.8994 79.4146 32.4605 76.862 26.1011C74.7194 20.7673 72.5767 15.4334 70.4397 10.1093C67.1809 10.5725 65.1198 13.8313 63.9259 16.9018C61.089 24.2258 60.6175 32.266 60.9571 40.1112C61.3716 49.7087 62.9739 59.245 65.6873 68.4522C66.3345 70.6549 66.8688 73.248 67.936 75.2993C68.1813 75.7692 68.3897 76.1303 68.567 76.3923C67.8373 76.6834 67.102 76.9649 66.3723 77.256C57.6966 80.6645 48.8088 84.1564 40.3568 88.5157C41.6917 86.0274 42.5204 83.1808 42.9807 81.0934C44.1691 75.8272 43.9075 70.1229 42.2326 65.0134C38.3189 53.0512 28.3293 44.8311 20.6458 40.0419C19.9955 39.6366 18.6528 38.7984 17.113 39.219C15.9362 39.5471 14.507 40.6325 14.4266 43.9188L13.996 62.7351L14.035 62.7126ZM108.368 66.0216C105.977 65.8925 104.511 65.0213 104.287 64.227C104.254 64.1027 104.286 63.9544 104.317 63.8062C120.683 61.2538 137.359 59.8489 153.962 59.645L154.855 59.6368C159.976 59.5819 165.271 59.4912 170.182 57.8787C170.282 57.9384 170.397 58.0022 170.471 58.0634C150.36 64.4957 129.489 67.1771 108.373 66.0314L108.368 66.0216ZM122.476 57.5768C123.865 57.4127 125.163 57.249 126.323 57.0733C132.278 56.1858 138.26 55.6853 144.231 55.5693C152.34 55.4158 160.44 55.9695 168.444 57.2561C168.658 57.2887 168.858 57.3423 169.058 57.396C164.513 58.7188 159.604 58.7812 154.832 58.8305L153.938 58.8386C137.528 59.0361 120.961 60.4293 104.734 62.9279C105.086 62.4777 105.617 62.0015 106.307 61.5512C110.036 59.0858 116.928 58.2431 122.471 57.567L122.476 57.5768ZM125.341 35.8327C122.097 42.1815 117.433 47.9845 111.272 53.3372C117.619 42.1776 124.168 31.0061 130.793 20.0116C129.566 25.4821 127.893 30.8329 125.331 35.8383L125.341 35.8327ZM131.301 17.6235C123.907 29.8555 116.592 42.315 109.539 54.7538C108.543 55.5759 107.502 56.3856 106.423 57.1773C109.436 52.6144 111.783 47.3038 114.062 42.1236C114.848 40.3297 115.621 38.5819 116.399 36.9096C118.068 33.331 120.096 29.8571 122.06 26.4981C123.419 24.1649 124.824 21.7532 126.102 19.3239C128.572 14.632 130.667 9.6748 132.684 4.8284C132.911 4.74911 133.133 4.66009 133.351 4.58644C132.779 8.93722 132.158 13.3162 131.297 17.6389L131.301 17.6235ZM131.661 5.19777C129.736 9.79638 127.741 14.5001 125.393 18.9524C124.119 21.3663 122.724 23.7724 121.359 26.0959C119.391 29.4703 117.349 32.9652 115.663 36.5802C114.88 38.2679 114.113 40.0254 113.311 41.8153C110.717 47.7111 108.041 53.7583 104.406 58.6412L104.358 58.6037C103.954 58.2645 103.632 57.8648 103.358 57.4118C103.933 51.94 104.898 46.4903 106.291 41.1714C108.015 34.5806 110.135 29.102 112.773 24.4303C116.004 18.7133 120.328 13.6274 124.624 8.74012C126.852 7.34927 129.199 6.16335 131.641 5.20903L131.661 5.19777ZM122.09 10.437C118.432 14.6702 114.876 19.1041 112.107 24.0209C109.437 28.75 107.286 34.2861 105.55 40.9483C104.269 45.8515 103.329 50.8707 102.738 55.9092C102.385 54.8247 102.223 53.643 102.125 52.5938C100.579 36.4405 108.952 19.909 122.106 10.4411L122.09 10.437ZM109.906 102.672C110.509 103.131 111.112 103.589 111.696 104.059C108.402 103.762 105.268 103.698 102.211 103.654C97.8399 103.588 93.3278 103.526 88.4015 102.701C78.2172 100.995 67.6917 99.2387 57.7116 95.9706C53.9113 94.7296 51.0067 92.1778 49.4909 88.8762C49.796 88.661 50.1417 88.4484 50.5392 88.2579C70.8207 89.7162 91.1652 94.6644 109.912 102.682L109.906 102.672ZM92.9181 108.811C84.4802 108.192 75.555 107.359 67.2922 104.609C61.7547 102.771 54.1809 99.3883 49.5991 93.7061C48.3988 92.2131 47.9978 91.0003 48.4075 90.0872C48.5099 89.8589 48.6683 89.6374 48.8574 89.4241C50.4799 92.8202 53.5399 95.4385 57.469 96.7222C67.505 99.9971 78.0669 101.771 88.2763 103.476C93.2586 104.308 97.8112 104.372 102.207 104.437C105.618 104.484 109.131 104.551 112.84 104.96C114.211 106.094 115.533 107.257 116.823 108.477C108.993 109.835 101.051 109.398 92.9278 108.805L92.9181 108.811ZM97.7355 95.204C100.961 96.8025 104.033 98.6073 106.959 100.587C89.5683 93.5435 70.899 89.0855 52.2554 87.5794C53.7516 87.1059 55.4709 86.8159 57.0513 86.7362C57.9624 86.6916 58.8638 86.6526 59.7666 86.6388C72.8172 86.3906 85.8778 89.3375 97.7257 95.2096L97.7355 95.204ZM28.2056 50.0031C35.0359 62.1942 36.7834 77.3458 32.9912 90.7904C32.54 90.8427 32.0801 90.835 31.6116 90.7672C31.524 88.0463 31.6346 85.263 31.7554 82.5649C31.9712 77.665 32.1877 72.6085 31.1819 67.7113C29.0188 57.1585 25.4108 49.1965 20.1762 43.4879C22.7456 45.1663 25.5251 47.2309 28.1762 49.6818C28.1417 49.7798 28.1436 49.8958 28.2056 50.0031ZM18.0766 42.4881C24.0309 48.1586 28.0639 56.4737 30.4041 67.8741C31.3885 72.6666 31.1746 77.6825 30.9558 82.5321C30.8435 84.952 30.7358 87.4474 30.7832 89.9183C26.8453 84.4499 24.721 77.9083 23.1594 72.1609C20.5179 62.4699 18.8186 52.4951 18.092 42.4922L18.0766 42.4881ZM28.3887 89.5571C23.1567 86.3322 18.6725 78.0694 17.7566 73.5757C17.0463 70.0692 17.1262 66.3538 17.2136 62.7641L17.5924 46.1117C18.4369 54.9665 20.0415 63.7858 22.379 72.3643C23.9605 78.1912 26.1509 84.8247 30.1816 90.4087C29.588 90.1919 28.997 89.9346 28.3887 89.5571ZM39.2053 65.9676C40.696 70.5328 40.9368 75.6375 39.8717 80.3511C38.5683 86.1392 36.3156 89.9901 33.8516 90.658C37.418 77.6561 35.8899 63.1324 29.7132 51.1495C33.7201 55.1598 37.2768 60.0807 39.2053 65.9676Z" fill="#ACB1A0"/>
<path d="M144.691 35.9032C145.215 35.8869 145.736 35.8202 146.248 35.6936C148.939 35.0121 151.25 32.7277 152.41 29.5987C153.111 27.7241 153.23 26.0156 152.762 24.5291C152.204 22.7048 150.689 21.367 148.512 20.7505C145.451 19.8892 141.62 20.5785 139.602 22.3556C136.998 24.6524 136.187 28.543 137.664 31.6198C138.928 34.26 141.816 35.9495 144.685 35.8934L144.691 35.9032ZM141.715 24.753C142.774 23.816 145.479 23.2044 147.646 23.8265C148.422 24.0425 149.404 24.5035 149.704 25.475C149.95 26.2832 149.859 27.2983 149.406 28.4967C148.789 30.1544 147.432 32.1088 145.458 32.611C143.573 33.0876 141.389 32.0323 140.545 30.2553C139.698 28.4938 140.219 26.0847 141.72 24.7628L141.715 24.753Z" fill="#ACB1A0"/>
<path d="M161.385 37.48C160.628 38.0858 160.043 38.7621 159.642 39.4879C158.224 42.0115 158.938 45.5025 161.254 47.4182C162.556 48.5012 164.275 49.0443 165.999 49.0114C167.069 48.9927 168.14 48.7517 169.147 48.2874C170.064 47.8486 170.818 47.2834 171.373 46.5989C172.61 45.0908 172.952 42.8893 172.285 40.8544C171.439 38.285 169.808 36.52 167.691 35.8949C165.635 35.2863 163.391 35.84 161.379 37.4703L161.385 37.48ZM162.432 41.0521C162.632 40.6766 162.958 40.3187 163.382 39.9702C164.567 39.0257 165.783 38.675 166.785 38.9683C167.87 39.2919 168.749 40.3195 169.251 41.8645C169.578 42.8596 169.44 43.9281 168.9 44.5916C168.641 44.91 168.263 45.1801 167.782 45.4058C166.274 46.1072 164.436 45.9197 163.288 44.9688C162.162 44.0318 161.761 42.2333 162.426 41.0423L162.432 41.0521Z" fill="#ACB1A0"/>
<path d="M166.664 20.2103C167.394 20.6865 168.216 21.0965 169.087 21.0493C170.209 20.987 171.178 20.1413 171.657 19.123C172.136 18.1048 172.193 16.9402 172.14 15.8125C171.901 11.4094 165.766 13.1559 164.804 16.3134C164.657 16.8019 164.598 17.3305 164.694 17.8346C164.912 18.8665 165.771 19.6328 166.658 20.2005L166.664 20.2103Z" fill="#ACB1A0"/>
<path d="M190.137 15.2982C189.393 16.4434 189.538 18.025 190.292 19.151C190.807 19.9076 191.642 20.5189 192.556 20.5246C192.925 20.5328 193.298 20.4347 193.632 20.2934C194.869 19.7749 195.815 18.5519 195.87 17.2057C195.997 14.27 191.764 12.7975 190.127 15.3038L190.137 15.2982Z" fill="#ACB1A0"/>
</svg>
