<svg width="114" height="89" viewBox="0 0 114 89" fill="none" xmlns="http://www.w3.org/2000/svg">
<path d="M29.9898 76.6167C22.357 81.8578 12.4563 85.1138 1.36928 86.0276C0.550355 86.1011 -0.058516 86.8153 0.00447858 87.6346C0.0674732 88.4118 0.718325 89 1.48476 89C1.52675 89 1.56875 89 1.61074 89C13.2227 88.0442 23.6169 84.6096 31.6802 79.0745C40.4679 73.0456 46.6205 64.3805 48.8358 55.0432C53.4029 59.8431 59.7758 63.4352 67.0096 65.2102C70.9048 66.166 75.0415 66.6387 79.5036 66.6387C82.5903 66.6387 85.845 66.4076 89.2677 65.956C93.9608 65.3258 99.7878 64.1494 104.533 60.7779C105.142 61.2086 105.877 61.5341 106.759 61.7547C107.389 61.9123 107.998 61.9963 108.586 61.9963C109.489 61.9963 110.318 61.8072 111.043 61.4186C113.563 60.0847 114.361 57.0282 113.857 54.6965C113.332 52.3123 111.578 50.7473 109.269 50.6213C106.738 50.4532 104.029 52.2493 102.938 54.7386C102.392 55.9885 102.329 57.2698 102.738 58.4252C98.5175 61.3871 93.1943 62.4479 88.8792 63.0256C80.8789 64.0969 73.9601 63.8658 67.7236 62.3429C62.0016 60.946 56.8885 58.3201 52.9093 54.8436C55.5761 55.3372 58.3794 55.6208 61.3296 55.6208C61.4556 55.6208 61.5921 55.6208 61.7286 55.6208C69.7499 55.5578 76.9733 53.6252 82.6218 50.0226C88.4803 46.2835 97.0371 37.8809 98.423 30.4762C99.0424 30.4552 99.6304 30.3292 100.134 30.0561C101.783 29.1843 102.665 27.1047 102.224 25.1196C101.835 23.334 100.502 22.1576 98.7589 22.0631C96.8901 21.9476 94.9267 23.2395 94.1288 25.046C93.4673 26.548 93.7613 28.1235 94.9162 29.2473C95.0947 29.4259 95.3152 29.5519 95.5252 29.6884C94.5068 36.1689 86.3279 44.1198 81.0049 47.5124C75.8288 50.8209 69.141 52.5959 61.6762 52.6484C59.9963 52.6589 58.3899 52.5644 56.8151 52.4068C59.7758 51.8817 62.8731 50.8734 65.8968 49.4135C68.6686 48.0585 72.2382 46.168 75.2829 43.4476C80.0915 39.1518 83.1888 33.123 83.9447 26.7265C84.4696 26.632 84.9736 26.4954 85.4251 26.2644C87.9449 24.92 88.7427 21.8741 88.2388 19.5529C87.7138 17.1687 85.9605 15.6037 83.6612 15.4671C81.1624 15.3306 78.4221 17.0951 77.3197 19.5844C76.4378 21.58 76.8264 23.6701 78.3592 25.151C79.0207 25.8022 79.8816 26.2539 80.984 26.548C80.2806 32.1567 77.5507 37.4503 73.3091 41.221C70.5373 43.6892 67.1986 45.4643 64.6053 46.7246C60.7101 48.6257 56.6891 49.697 53.1509 49.8335C57.0146 45.5272 59.1773 39.9921 60.8046 34.961C62.6 29.4259 64.0069 23.7226 65.0148 17.9878C65.2983 17.9143 65.5608 17.8198 65.8127 17.6833C67.4611 16.8115 68.343 14.7319 67.9126 12.7468C67.5241 10.9612 66.1908 9.78488 64.4479 9.67985C62.5686 9.58532 60.6157 10.8562 59.8178 12.6628C59.1563 14.1647 59.4503 15.7402 60.6052 16.8745C60.9832 17.2421 61.4766 17.5048 62.0331 17.7148C61.0462 23.229 59.6918 28.7116 57.9699 34.0368C56.1536 39.677 53.6234 45.9684 48.6993 49.9701C48.6468 50.0121 48.6048 50.0646 48.5628 50.1172C46.505 39.3829 47.5863 26.8421 51.6284 14.6584C51.7019 14.6584 51.7859 14.6689 51.8594 14.6689C52.7623 14.6689 53.5918 14.4798 54.3163 14.0912C56.8361 12.7468 57.6339 9.70084 57.13 7.36913C56.605 4.98491 54.8517 3.41992 52.5524 3.29389C50.0326 3.14684 47.3134 4.92193 46.211 7.41118C45.3291 9.40679 45.7175 11.4969 47.2399 12.9779C47.6494 13.377 48.1532 13.7026 48.7307 13.9652C44.8985 25.6132 43.6701 37.5974 45.203 48.1636C42.1268 45.6743 40.2999 41.7461 39.2605 38.5742C36.5097 30.1716 36.5518 20.9603 39.3656 12.5787C39.8065 12.5157 40.2159 12.4106 40.5939 12.2111C42.2422 11.3393 43.1242 9.25974 42.6937 7.27464C42.3052 5.48909 40.9719 4.31269 39.2291 4.20766C37.3497 4.10263 35.3969 5.38404 34.5989 7.19059C33.9375 8.69255 34.2315 10.268 35.3864 11.3919C35.6698 11.665 36.0058 11.8855 36.3837 12.0746C33.528 20.9393 33.528 30.6337 36.4363 39.4879C37.0767 41.431 37.9901 43.6367 39.2605 45.7058C35.4178 42.7859 32.2156 39.0258 29.9793 34.7299C26.2731 27.5878 25.3492 19.1327 27.3861 11.3603C28.226 11.3393 29.0134 11.1608 29.6853 10.8037C32.2051 9.45929 33.0031 6.41335 32.4991 4.09214C31.9742 1.70791 30.2208 0.142922 27.9215 0.00638076C25.4123 -0.119658 22.6824 1.63442 21.58 4.12368C20.6981 6.11929 21.0866 8.20941 22.6194 9.69036C23.1129 10.1735 23.7218 10.5411 24.4568 10.8352C22.3255 19.2587 23.3544 28.386 27.3545 36.1059C30.9347 43.0065 36.8038 48.6047 43.7962 51.9342C36.9508 52.3018 30.0108 50.8629 24.1733 47.7329C17.1704 43.9833 11.5429 37.9859 8.18319 30.8018C8.24618 30.7702 8.30923 30.7597 8.37223 30.7282C10.0206 29.8565 10.9025 27.7769 10.4615 25.7918C10.0731 24.0062 8.73964 22.8298 7.00729 22.7353C5.12795 22.6198 3.17522 23.9117 2.37728 25.7182C1.71584 27.2202 2.00982 28.7957 3.16472 29.9195C3.62668 30.3712 4.20407 30.6863 4.939 30.9068C8.49819 39.1938 14.8291 46.1049 22.777 50.3587C29.6329 54.0243 37.8746 55.5683 45.8539 54.7701C43.7331 63.2356 38.0636 71.1025 30.0108 76.6377L29.9898 76.6167ZM105.646 55.9149C106.234 54.5705 107.778 53.5412 109.09 53.5727C110.381 53.6462 110.801 54.6966 110.938 55.3162C111.2 56.5136 110.833 58.1311 109.636 58.7718C108.985 59.1184 108.103 59.0029 107.473 58.8453C107.137 58.7613 106.854 58.6563 106.612 58.5407C106.644 58.1626 106.518 57.7635 106.255 57.4589C106.035 57.2068 105.751 57.0703 105.457 57.0072C105.426 56.7027 105.468 56.3456 105.657 55.9149H105.646ZM96.8586 26.2014C97.1526 25.5291 98.0659 24.9725 98.5909 24.983C98.7484 24.983 99.1579 25.0145 99.3154 25.7077C99.4414 26.2959 99.2523 27.1046 98.7379 27.3777C98.5174 27.4932 98.1499 27.4932 97.6985 27.3777C97.289 27.2727 97.0896 27.1466 96.9951 27.0521C96.8166 26.8841 96.6486 26.653 96.8586 26.1804V26.2014ZM80.0391 20.7397C80.6165 19.4373 82.1073 18.3975 83.3567 18.3975C83.3987 18.3975 83.4408 18.3975 83.4828 18.3975C84.7742 18.471 85.194 19.5214 85.3305 20.1411C85.593 21.3384 85.2255 22.9559 84.0286 23.5861C83.7032 23.7541 83.3253 23.8172 82.9473 23.8172C82.8633 23.7962 82.8002 23.7647 82.7162 23.7542C82.6533 23.7542 82.5903 23.7751 82.5273 23.7856C82.2964 23.7541 82.0654 23.7226 81.8659 23.6701C81.2149 23.5126 80.732 23.271 80.4275 22.9769C80.186 22.7458 79.4616 22.0421 80.0391 20.7397ZM62.5475 13.8391C62.831 13.1879 63.6184 12.6207 64.2274 12.6207C64.2484 12.6207 64.2589 12.6207 64.2799 12.6207C64.4374 12.6207 64.8468 12.6522 65.0043 13.3455C65.1303 13.9336 64.9414 14.7424 64.4164 15.0155C64.2064 15.131 63.8285 15.131 63.3875 15.0155C62.9675 14.9105 62.7785 14.7844 62.6945 14.7004C62.516 14.5219 62.3481 14.3013 62.558 13.8286L62.5475 13.8391ZM48.9407 8.58754C49.5287 7.24313 51.1035 6.20327 52.3843 6.24528C53.6757 6.3188 54.0957 7.36916 54.2322 7.98885C54.4947 9.18621 54.1272 10.8037 52.9303 11.4444C52.2794 11.791 51.3975 11.686 50.7676 11.5179C50.1166 11.3604 49.6337 11.1188 49.3187 10.8247C49.0772 10.5937 48.3633 9.88993 48.9302 8.58754H48.9407ZM37.3392 8.37746C37.6332 7.70526 38.3576 7.15905 39.0716 7.15905C39.2291 7.15905 39.6385 7.19057 39.7959 7.88378C39.9219 8.47196 39.733 9.28073 39.2081 9.55381C38.9981 9.66935 38.6096 9.66935 38.1792 9.55381C37.7697 9.44878 37.5702 9.32276 37.4757 9.23873C37.2972 9.07068 37.1292 8.83959 37.3392 8.36695V8.37746ZM24.3098 5.31055C24.8977 3.96614 26.4306 2.92628 27.7535 2.96829C29.0449 3.04181 29.4649 4.09217 29.6014 4.71186C29.8638 5.90922 29.4964 7.52668 28.2995 8.15687C27.6485 8.50348 26.7666 8.39846 26.1366 8.24091C25.4857 8.07286 25.0028 7.84182 24.6879 7.54773C24.4464 7.31666 23.7323 6.61294 24.2993 5.31055H24.3098ZM5.09651 26.9051C5.39049 26.2329 6.18845 25.6972 6.82889 25.6867C6.98638 25.6867 7.39578 25.7182 7.55327 26.4114C7.67926 26.9996 7.49034 27.8084 6.96538 28.0815C6.7554 28.197 6.36683 28.197 5.93636 28.0815C5.5164 27.9764 5.31699 27.8504 5.2225 27.7559C5.04401 27.5878 4.87602 27.3567 5.086 26.8841L5.09651 26.9051Z" fill="#ACB1A0"/>
</svg>
