<svg width="196" height="131" viewBox="0 0 196 131" fill="none" xmlns="http://www.w3.org/2000/svg">
<g id="Vector">
<path d="M181.838 61.9684C181.925 65.7398 182.004 69.6369 181.232 73.4981C180.223 78.4457 175.344 87.7299 169.142 91.5529C167.742 92.423 166.342 92.9549 164.97 93.1906C172.514 98.0406 179.394 103.861 185.403 110.491C189.011 114.474 194.018 120.631 195.828 128.065C196.034 128.925 195.513 129.783 194.653 129.989C194.514 130.026 194.377 130.038 194.246 130.04C193.54 130.023 192.898 129.535 192.723 128.823C191.465 123.633 188.478 118.642 183.032 112.636C180.689 110.047 178.21 107.601 175.608 105.279C175.811 105.695 175.964 106.174 176.017 106.712C177.114 116.532 151.119 111.998 146.762 109.899C146.581 109.807 146.38 109.704 146.295 109.512C146.108 109.092 146.622 108.699 147.042 108.512C150.229 107.138 166.539 100.615 173.21 103.191C169.955 100.467 166.527 97.9538 162.943 95.6638C159.005 93.1556 154.877 90.9289 150.643 88.8876C151 90.3428 150.806 92.3909 148.739 94.9577C143.667 101.242 135.514 104.927 129.565 106.892C120.953 109.753 111.804 110.612 103.163 111.245C98.503 111.586 93.6587 111.886 88.8174 111.797C85.1865 111.731 81.5538 111.442 77.9827 110.799C76.5443 110.541 75.6653 109.877 75.3596 108.829C75.0525 107.806 75.4373 106.779 76.4662 105.785C82.345 100.11 89.1534 95.3493 96.6883 91.6063C109.109 85.4404 122.808 82.3804 136.509 82.7181C133.769 81.6045 131.022 80.5258 128.304 79.4641C122.745 77.2827 117.004 75.0348 111.452 72.5711C105.275 69.8376 99.7235 66.9448 94.7432 63.8743C94.7229 64.0447 94.6887 64.1941 94.656 64.3184C94.0249 66.6735 91.3399 68.2591 87.6672 68.4677C83.3263 68.707 78.9903 68.7799 74.6788 68.6978C57.1601 68.3682 39.8739 65.4274 23.1246 59.9339C22.7282 59.8092 22.4025 59.517 22.207 59.1569C21.7275 58.2295 21.7181 57.2092 22.1722 56.2873C22.9972 54.6557 25.1429 53.6435 26.9164 53.3663C41.1425 51.1052 55.6452 51.0468 70.0167 53.1766C71.1425 53.3452 72.4207 53.4976 73.7785 53.67C76.5151 54.0009 79.5618 54.3806 82.4845 54.9751C76.0312 49.3625 71.1119 43.2565 67.6922 36.5588C62.1164 25.6627 60.4845 12.9839 59.0303 1.80007C58.9614 1.26584 59.1594 0.742599 59.5691 0.393601C59.969 0.038969 60.5217 -0.0843603 61.0382 0.0577092C83.0039 6.11669 99.1089 29.4936 96.9352 52.1671C96.702 54.6219 96.1575 57.6385 94.148 59.7442C99.5554 63.2695 105.749 66.5594 112.758 69.6557C116.81 71.4488 120.99 73.1335 125.117 74.7746C124.949 74.5474 124.757 74.2936 124.546 74.0285C121.991 70.8359 118.804 68.1759 116.531 64.7428C112.755 59.0234 111.95 51.7406 112.918 44.9479C113.886 38.1552 116.458 31.7163 119.011 25.357C121.154 20.0231 123.296 14.6893 125.433 9.36516C128.692 9.82833 130.753 13.0872 131.947 16.1576C134.784 23.4816 135.256 31.5219 134.916 39.367C134.501 48.9646 132.899 58.5009 130.186 67.708C129.539 69.9107 129.004 72.5039 127.937 74.5551C127.692 75.0251 127.483 75.3861 127.306 75.6481C128.036 75.9393 128.771 76.2207 129.501 76.5119C138.176 79.9204 147.064 83.4122 155.516 87.7715C154.181 85.2833 153.353 82.4367 152.892 80.3493C151.704 75.083 151.966 69.3788 153.64 64.2693C157.554 52.3071 167.544 44.087 175.227 39.2977C175.878 38.8925 177.22 38.0543 178.76 38.4748C179.937 38.8029 181.366 39.8883 181.446 43.1747L181.877 61.991L181.838 61.9684ZM87.5053 65.2775C89.8959 65.1484 91.3618 64.2771 91.5862 63.4828C91.6189 63.3586 91.5874 63.2103 91.5559 63.062C75.1904 60.5096 58.5138 59.1048 41.9115 58.9008L41.0184 58.8927C35.8974 58.8377 30.602 58.747 25.6907 57.1346C25.5912 57.1943 25.4762 57.2581 25.4019 57.3192C45.5127 63.7515 66.3837 66.433 87.4996 65.2872L87.5053 65.2775ZM73.3968 56.8327C72.0082 56.6686 70.7105 56.5048 69.5498 56.3292C63.5954 55.4417 57.6127 54.9412 51.6422 54.8252C43.5335 54.6716 35.4327 55.2254 27.4294 56.512C27.2154 56.5446 27.0153 56.5982 26.8152 56.6518C31.3602 57.9747 36.2686 58.0371 41.0415 58.0863L41.9346 58.0945C58.3455 58.2919 74.9118 59.6851 91.1391 62.1838C90.7875 61.7336 90.2557 61.2574 89.5658 60.807C85.8366 58.3417 78.9455 57.4989 73.4024 56.8229L73.3968 56.8327ZM70.5319 35.0885C73.7756 41.4373 78.4405 47.2404 84.6015 52.593C78.2539 41.4335 71.7051 30.2619 65.08 19.2675C66.3066 24.7379 67.9796 30.0888 70.5417 35.0942L70.5319 35.0885ZM64.5721 16.8793C71.966 29.1114 79.2806 41.5709 86.3339 54.0096C87.3296 54.8317 88.3714 55.6414 89.4497 56.4331C86.437 51.8702 84.0902 46.5597 81.8112 41.3795C81.0253 39.5855 80.2518 37.8378 79.4737 36.1654C77.8055 32.5869 75.7775 29.113 73.8133 25.7539C72.454 23.4207 71.0488 21.009 69.771 18.5797C67.3012 13.8878 65.2057 8.93066 63.1895 4.08425C62.962 4.00497 62.7402 3.91595 62.5224 3.8423C63.0943 8.19308 63.715 12.572 64.5762 16.8947L64.5721 16.8793ZM64.2123 4.45363C66.1375 9.05224 68.132 13.756 70.4799 18.2083C71.7536 20.6222 73.149 23.0283 74.514 25.3517C76.4823 28.7262 78.5241 32.2211 80.2104 35.8361C80.9926 37.5238 81.7605 39.2813 82.5618 41.0711C85.1562 46.967 87.8324 53.0141 91.4671 57.8971L91.5148 57.8596C91.9188 57.5204 92.2406 57.1207 92.5152 56.6676C91.94 51.1959 90.9747 45.7461 89.5825 40.4273C87.8577 33.8365 85.7381 28.3578 83.1004 23.6862C79.8693 17.9692 75.5451 12.8833 71.2493 7.99598C69.0206 6.60513 66.6736 5.41921 64.2319 4.46489L64.2123 4.45363ZM73.7828 9.69288C77.4413 13.926 80.9969 18.3599 83.7662 23.2768C86.4357 28.0059 88.5872 33.542 90.3229 40.2042C91.6037 45.1074 92.5443 50.1265 93.1355 55.165C93.4884 54.0806 93.6501 52.8989 93.7485 51.8497C95.2936 35.6964 86.9209 19.1648 73.7674 9.69698L73.7828 9.69288ZM85.9668 101.928C85.3637 102.387 84.7607 102.845 84.1771 103.315C87.4714 103.018 90.6053 102.954 93.6623 102.91C98.0332 102.844 102.545 102.782 107.472 101.957C117.656 100.251 128.181 98.4946 138.161 95.2264C141.962 93.9854 144.866 91.4336 146.382 88.132C146.077 87.9168 145.731 87.7042 145.334 87.5138C125.052 88.9721 104.708 93.9202 85.9611 101.938L85.9668 101.928ZM102.955 108.067C111.393 107.448 120.318 106.615 128.581 103.865C134.118 102.026 141.692 98.6442 146.274 92.962C147.474 91.469 147.875 90.2562 147.466 89.343C147.363 89.1148 147.205 88.8932 147.016 88.6799C145.393 92.0761 142.333 94.6943 138.404 95.9781C128.368 99.2529 117.806 101.027 107.597 102.732C102.614 103.563 98.0618 103.628 93.6658 103.693C90.2552 103.74 86.7425 103.807 83.0326 104.216C81.662 105.35 80.3402 106.513 79.0503 107.733C86.8797 109.091 94.822 108.654 102.945 108.061L102.955 108.067ZM98.1376 94.4598C94.9116 96.0584 91.8398 97.8631 88.914 99.8432C106.305 92.7994 124.974 88.3414 143.618 86.8352C142.121 86.3617 140.402 86.0717 138.822 85.992C137.911 85.9474 137.009 85.9085 136.106 85.8947C123.056 85.6465 109.995 88.5934 98.1474 94.4655L98.1376 94.4598ZM167.667 49.259C160.837 61.45 159.09 76.6017 162.882 90.0463C163.333 90.0986 163.793 90.0908 164.261 90.023C164.349 87.3021 164.238 84.5188 164.118 81.8207C163.902 76.9208 163.685 71.8644 164.691 66.9671C166.854 56.4144 170.462 48.4524 175.697 42.7437C173.127 44.4221 170.348 46.4867 167.697 48.9377C167.731 49.0356 167.729 49.1517 167.667 49.259ZM177.796 41.744C171.842 47.4145 167.809 55.7296 165.469 67.1299C164.485 71.9224 164.698 76.9384 164.917 81.7879C165.03 84.2079 165.137 86.7032 165.09 89.1741C169.028 83.7057 171.152 77.1642 172.714 71.4168C175.355 61.7257 177.054 51.7509 177.781 41.7481L177.796 41.744ZM167.484 88.813C172.716 85.588 177.201 77.3252 178.116 72.8315C178.827 69.3251 178.747 65.6097 178.659 62.02L178.281 45.3675C177.436 54.2224 175.831 63.0417 173.494 71.6201C171.913 77.4471 169.722 84.0806 165.691 89.6646C166.285 89.4478 166.876 89.1905 167.484 88.813ZM156.668 65.2234C155.177 69.7887 154.936 74.8934 156.001 79.607C157.305 85.395 159.557 89.2459 162.021 89.9138C158.455 76.912 159.983 62.3883 166.16 50.4054C162.153 54.4157 158.596 59.3365 156.668 65.2234Z" fill="#ACB1A0"/>
<path d="M51.1821 35.159C50.658 35.1427 50.1369 35.0761 49.6246 34.9494C46.9342 34.268 44.6228 31.9836 43.4627 28.8546C42.7624 26.9799 42.6428 25.2714 43.1107 23.785C43.6695 21.9607 45.1836 20.6228 47.3611 20.0063C50.4217 19.145 54.2525 19.8344 56.2713 21.6114C58.8748 23.9083 59.6863 27.7989 58.2092 30.8756C56.9451 33.5158 54.0569 35.2054 51.1877 35.1493L51.1821 35.159ZM54.1585 24.0089C53.099 23.0719 50.3944 22.4602 48.2266 23.0824C47.4513 23.2983 46.4695 23.7594 46.1688 24.7308C45.9234 25.539 46.0139 26.5542 46.4671 27.7526C47.0844 29.4102 48.4413 31.3647 50.4154 31.8668C52.3002 32.3435 54.4839 31.2881 55.3276 29.5112C56.1755 27.7497 55.6537 25.3406 54.1528 24.0186L54.1585 24.0089Z" fill="#ACB1A0"/>
<path d="M34.4884 36.7359C35.2447 37.3417 35.8301 38.018 36.2308 38.7437C37.6494 41.2673 36.935 44.7584 34.6189 46.6741C33.317 47.7571 31.5982 48.3001 29.8736 48.2673C28.8044 48.2486 27.7335 48.0076 26.7264 47.5433C25.8087 47.1045 25.055 46.5393 24.5004 45.8547C23.2632 44.3467 22.9207 42.1452 23.5881 40.1103C24.434 37.5409 26.0646 35.7759 28.1821 35.1508C30.238 34.5421 32.4816 35.0958 34.494 36.7261L34.4884 36.7359ZM33.441 40.3079C33.2414 39.9324 32.9146 39.5746 32.4912 39.2261C31.306 38.2815 30.0901 37.9309 29.0881 38.2241C28.0034 38.5478 27.1239 39.5753 26.6222 41.1204C26.2949 42.1155 26.4327 43.1839 26.9735 43.8474C27.232 44.1659 27.6096 44.4359 28.0908 44.6617C29.5986 45.3631 31.4374 45.1756 32.5849 44.2247C33.7115 43.2876 34.1122 41.4892 33.4466 40.2981L33.441 40.3079Z" fill="#ACB1A0"/>
<path d="M29.2092 19.4662C28.4789 19.9423 27.6567 20.3524 26.7861 20.3052C25.664 20.2428 24.695 19.3971 24.216 18.3789C23.7369 17.3606 23.6805 16.1961 23.7331 15.0684C23.9721 10.6653 30.1072 12.4118 31.0688 15.5693C31.2162 16.0577 31.2753 16.5863 31.1794 17.0905C30.961 18.1224 30.1022 18.8887 29.2149 19.4564L29.2092 19.4662Z" fill="#ACB1A0"/>
<path d="M5.73607 14.5541C6.48013 15.6993 6.33473 17.2808 5.58055 18.4068C5.06563 19.1635 4.23129 19.7748 3.31717 19.7805C2.94814 19.7886 2.57538 19.6905 2.24055 19.5493C1.0045 19.0308 0.0581207 17.8078 0.00260925 16.4616C-0.124084 13.5258 4.10913 12.0533 5.74585 14.5597L5.73607 14.5541Z" fill="#ACB1A0"/>
</g>
</svg>
