<svg width="244" height="164" viewBox="0 0 244 164" fill="none" xmlns="http://www.w3.org/2000/svg">
<path d="M115.374 98.7391C114.067 101.066 112.723 103.474 111.919 106.141C110.902 109.564 110.85 116.977 113.434 121.415C114.015 122.422 114.709 123.217 115.483 123.818C109.182 124.352 102.972 125.712 97.0339 127.867C93.4679 129.161 88.3098 131.35 84.7141 135.395C84.3002 135.864 84.3392 136.572 84.8056 136.985C84.8794 137.054 84.9606 137.107 85.0415 137.152C85.4859 137.374 86.0471 137.282 86.3922 136.895C88.899 134.07 92.414 131.941 97.7944 129.99C100.112 129.148 102.465 128.44 104.854 127.85C104.59 128.043 104.335 128.291 104.123 128.61C100.179 134.38 117.843 140.145 121.248 140.275C121.391 140.277 121.551 140.28 121.667 140.188C121.922 139.987 121.734 139.572 121.535 139.316C120.01 137.404 112.041 127.936 107.038 127.339C109.967 126.714 112.933 126.278 115.921 126.033C119.202 125.769 122.508 125.743 125.818 125.868C125.113 126.659 124.552 128.002 124.984 130.289C126.049 135.891 129.891 140.889 132.936 144.084C137.339 148.719 142.74 152.281 147.9 155.534C150.683 157.288 153.595 159.077 156.633 160.623C158.912 161.782 161.266 162.803 163.699 163.582C164.679 163.897 165.446 163.773 165.984 163.219C166.515 162.682 166.617 161.913 166.308 160.952C164.54 155.464 161.89 150.239 158.451 145.409C152.779 137.45 145.282 131.009 136.653 126.689C138.726 126.9 140.792 127.134 142.835 127.37C147.015 127.846 151.33 128.341 155.6 128.638C160.347 128.973 164.759 129.002 168.875 128.731C168.831 128.845 168.803 128.949 168.782 129.038C168.391 130.717 169.533 132.596 171.747 133.94C174.365 135.525 177.036 137.005 179.743 138.379C190.742 143.967 202.463 147.847 214.699 149.955C214.987 150.008 215.287 149.933 215.528 149.773C216.134 149.352 216.479 148.718 216.503 147.992C216.533 146.7 215.535 145.358 214.525 144.599C206.434 138.482 197.439 133.649 187.799 130.227C187.043 129.96 186.198 129.632 185.297 129.291C183.486 128.593 181.466 127.822 179.452 127.227C185.328 125.856 190.415 123.669 194.766 120.617C201.852 115.655 207.08 108.276 211.7 101.772C211.92 101.461 211.971 101.068 211.833 100.715C211.702 100.361 211.399 100.101 211.031 100.019C195.365 96.5396 177.586 105.814 171.403 120.695C170.732 122.305 170.068 124.369 170.617 126.349C166.085 126.762 161.142 126.769 155.757 126.385C152.642 126.165 149.484 125.835 146.374 125.495C146.554 125.409 146.757 125.314 146.977 125.218C149.625 124.069 152.491 123.461 155.044 122.069C159.292 119.745 162.212 115.463 163.868 110.9C165.523 106.337 166.064 101.465 166.591 96.6492C167.031 92.6092 167.472 88.5692 167.913 84.5372C165.733 83.7489 163.369 85.1026 161.607 86.6255C157.41 90.2618 154.445 95.1276 152.049 100.14C149.118 106.271 146.945 112.757 145.571 119.405C145.242 120.995 144.712 122.791 144.694 124.425C144.69 124.8 144.7 125.094 144.723 125.317C144.173 125.257 143.622 125.19 143.072 125.13C136.547 124.39 129.862 123.632 123.16 123.56C124.816 122.447 126.278 120.943 127.257 119.792C129.746 116.895 131.479 113.246 132.136 109.501C133.678 100.735 130.201 92.2978 127.017 86.7657C126.747 86.2975 126.191 85.3299 125.094 85.0834C124.254 84.8992 123.005 85.1044 121.863 87.1304L115.342 98.7402L115.374 98.7391ZM172.907 132.001C171.464 131.13 170.843 130.101 170.967 129.531C170.988 129.443 171.057 129.36 171.126 129.278C182.146 133.096 192.978 137.734 203.366 143.097L203.923 143.387C207.125 145.046 210.446 146.741 214.035 147.358C214.077 147.428 214.127 147.506 214.153 147.568C199.515 144.935 185.652 139.708 172.908 132.009L172.907 132.001ZM184.483 131.393C185.401 131.749 186.262 132.076 187.041 132.35C191.037 133.765 194.922 135.431 198.672 137.333C203.763 139.919 208.614 142.943 213.161 146.394C213.283 146.485 213.39 146.585 213.496 146.684C210.232 146.007 207.16 144.423 204.177 142.875L203.619 142.585C193.353 137.282 182.593 132.673 171.677 128.868C172.045 128.703 172.534 128.581 173.112 128.528C176.249 128.221 180.813 129.974 184.483 131.385L184.483 131.393ZM193.489 118.759C189.363 121.652 184.536 123.734 178.927 125.039C186.581 120.168 194.364 115.357 202.135 110.681C199.555 113.692 196.737 116.481 193.481 118.76L193.489 118.759ZM203.245 109.357C194.584 114.552 185.897 119.915 177.38 125.351C176.488 125.535 175.571 125.697 174.638 125.834C178.027 123.981 181.25 121.44 184.388 118.958C185.473 118.098 186.534 117.262 187.574 116.475C189.8 114.791 192.215 113.292 194.552 111.844C196.172 110.836 197.847 109.795 199.448 108.7C202.542 106.586 205.492 104.183 208.356 101.823C208.524 101.849 208.691 101.866 208.851 101.892C207.05 104.421 205.209 106.95 203.237 109.365L203.245 109.357ZM207.597 101.715C204.873 103.951 202.07 106.229 199.131 108.233C197.537 109.32 195.87 110.361 194.25 111.361C191.905 112.818 189.474 114.325 187.225 116.025C186.178 116.821 185.117 117.665 184.024 118.518C180.452 121.342 176.779 124.234 172.897 126.082L172.88 126.042C172.742 125.697 172.675 125.341 172.655 124.967C174.83 121.74 177.241 118.655 179.874 115.794C183.136 112.248 186.274 109.527 189.466 107.481C193.374 104.979 197.752 103.233 202.046 101.601C203.894 101.469 205.747 101.504 207.581 101.716L207.597 101.715ZM199.908 101.823C196.227 103.257 192.544 104.85 189.189 107.005C185.958 109.076 182.781 111.822 179.488 115.409C177.063 118.048 174.81 120.872 172.768 123.824C172.909 123.03 173.202 122.238 173.489 121.55C177.897 110.95 188.594 103.394 199.916 101.83L199.908 101.823ZM161.685 155.401C161.907 155.887 162.129 156.373 162.336 156.859C160.387 155.584 158.461 154.508 156.575 153.47C153.88 151.983 151.096 150.452 148.309 148.308C142.545 143.874 136.587 139.297 131.47 133.955C129.52 131.923 128.563 129.369 128.717 126.805C128.979 126.772 129.264 126.753 129.575 126.766C141.696 134.384 152.697 144.202 161.685 155.409L161.685 155.401ZM149.085 153.618C144.047 150.44 138.776 146.969 134.554 142.519C131.723 139.539 128.139 134.922 127.18 129.858C126.93 128.528 127.084 127.638 127.642 127.203C127.781 127.095 127.953 127.009 128.142 126.938C128.022 129.596 129.053 132.243 131.069 134.344C136.219 139.708 142.194 144.309 147.973 148.75C150.794 150.917 153.602 152.463 156.313 153.957C158.417 155.115 160.578 156.318 162.748 157.8C163.223 158.962 163.658 160.125 164.055 161.314C158.737 159.573 153.945 156.674 149.093 153.617L149.085 153.618ZM156.601 146.712C158.075 148.777 159.385 150.92 160.545 153.125C152.077 142.974 141.954 134.016 130.867 126.91C131.954 127.109 133.119 127.496 134.128 127.969C134.709 128.242 135.282 128.516 135.848 128.806C144.042 132.967 151.181 139.127 156.593 146.712L156.601 146.712ZM128.405 95.4873C128.599 105.36 124.651 115.402 117.826 122.545C117.528 122.428 117.245 122.271 116.976 122.074C117.826 120.345 118.819 118.644 119.791 116.998C121.554 114.009 123.368 110.923 124.371 107.532C126.533 100.225 126.936 94.0592 125.579 88.7627C126.619 90.6606 127.66 92.8693 128.494 95.2768C128.44 95.3266 128.402 95.3997 128.405 95.4873ZM124.607 87.4439C126.423 92.9546 126.167 99.4817 123.833 107.376C122.852 110.695 121.053 113.757 119.305 116.714C118.431 118.188 117.535 119.711 116.743 121.27C116.113 116.552 116.966 111.764 117.905 107.658C119.484 100.731 121.743 93.9394 124.615 87.4516L124.607 87.4439ZM115.375 120.252C113.195 116.508 113.153 109.864 114.077 106.755C114.801 104.33 116.085 102.036 117.332 99.8224L123.102 89.5469C120.684 95.3567 118.751 101.396 117.353 107.527C116.4 111.689 115.557 116.556 116.206 121.377C115.909 121.045 115.628 120.689 115.375 120.252ZM129.937 109.096C129.347 112.44 127.8 115.708 125.572 118.3C122.838 121.484 120.158 123.144 118.405 122.746C124.942 115.805 128.818 106.229 128.961 96.7018C130.119 100.532 130.695 104.781 129.937 109.096Z" fill="#ACB1A0"/>
<path d="M205.493 125.202C205.824 125.365 206.17 125.496 206.531 125.586C208.429 126.051 210.625 125.388 212.386 123.817C213.444 122.878 214.086 121.851 214.289 120.768C214.548 119.443 214.052 118.107 212.903 117.002C211.287 115.452 208.677 114.615 206.832 115.058C204.45 115.631 202.653 117.793 202.549 120.203C202.457 122.27 203.691 124.281 205.493 125.194L205.493 125.202ZM207.348 117.254C208.318 117.019 210.202 117.531 211.343 118.637C211.753 119.028 212.21 119.641 212.074 120.347C211.958 120.933 211.565 121.537 210.885 122.136C209.95 122.967 208.457 123.739 207.063 123.4C205.734 123.074 204.727 121.693 204.793 120.304C204.851 118.923 205.976 117.591 207.348 117.262L207.348 117.254Z" fill="#ACB1A0"/>
<path d="M215.345 131.708C214.674 131.836 214.085 132.065 213.595 132.386C211.874 133.493 211.158 135.909 211.961 137.872C212.411 138.979 213.299 139.886 214.381 140.436C215.052 140.778 215.798 140.982 216.578 141.025C217.294 141.054 217.951 140.95 218.523 140.706C219.793 140.173 220.737 138.912 220.999 137.42C221.327 135.536 220.9 133.894 219.791 132.803C218.716 131.743 217.137 131.347 215.345 131.7L215.345 131.708ZM214.809 134.285C215.058 134.117 215.38 134.001 215.759 133.924C216.809 133.726 217.682 133.909 218.207 134.423C218.774 134.984 218.979 135.917 218.777 137.048C218.65 137.777 218.209 138.399 217.653 138.635C217.386 138.748 217.062 138.792 216.688 138.774C215.517 138.713 214.437 137.988 214.04 137.015C213.651 136.057 213.999 134.801 214.809 134.277L214.809 134.285Z" fill="#ACB1A0"/>
<path d="M224.365 122.668C224.661 123.207 225.035 123.735 225.592 123.993C226.31 124.325 227.194 124.118 227.83 123.64C228.466 123.162 228.888 122.454 229.23 121.732C230.545 118.903 226.151 117.965 224.504 119.619C224.25 119.875 224.038 120.186 223.93 120.532C223.723 121.249 224.002 122.012 224.365 122.66L224.365 122.668Z" fill="#ACB1A0"/>
<path d="M240.587 127.362C239.744 127.831 239.309 128.867 239.404 129.82C239.472 130.463 239.788 131.121 240.354 131.426C240.581 131.553 240.845 131.616 241.1 131.638C242.041 131.723 243.035 131.272 243.517 130.45C244.572 128.658 242.43 126.338 240.58 127.362L240.587 127.362Z" fill="#ACB1A0"/>
<path d="M98.6435 89.8377C97.4441 92.2219 96.1983 94.6821 94.4354 96.8384C92.1642 99.5949 86.0466 103.78 80.9214 104.117C79.762 104.197 78.7151 104.067 77.7838 103.76C80.8612 109.284 83.2036 115.194 84.7348 121.323C85.6538 125.003 86.7201 130.505 85.375 135.747C85.217 136.352 84.6083 136.715 84.0051 136.559C83.9066 136.537 83.8175 136.499 83.7351 136.457C83.3021 136.213 83.0651 135.695 83.1934 135.193C84.1357 131.535 83.9374 127.431 82.5489 121.878C81.9526 119.486 81.2249 117.139 80.3792 114.828C80.3667 115.155 80.3027 115.505 80.1571 115.859C77.5757 122.354 62.9249 110.926 60.9143 108.174C60.8321 108.057 60.7414 107.926 60.7527 107.779C60.7762 107.454 61.226 107.378 61.5492 107.401C63.9868 107.597 76.2917 108.916 79.5819 112.731C78.4646 109.953 77.1686 107.25 75.7024 104.635C74.0877 101.766 72.2624 99.0099 70.3088 96.3347C70.0471 97.3616 69.2462 98.5768 67.1082 99.4962C61.8673 101.744 55.5754 101.35 51.2247 100.61C44.9208 99.5481 38.9487 97.0593 33.3679 94.5969C30.358 93.2689 27.2473 91.8542 24.2677 90.1979C22.0329 88.9556 19.8709 87.574 17.8652 85.9911C17.0568 85.3543 16.731 84.6491 16.8894 83.8934C17.0384 83.1528 17.6188 82.6386 18.5885 82.3584C24.1283 80.7581 29.9423 80.036 35.8694 80.1899C45.6386 80.4465 55.1699 83.0653 63.5739 87.8073C62.2408 86.2056 60.8917 84.6234 59.5551 83.0614C56.825 79.8607 54.0033 76.558 51.3712 73.1832C48.4403 69.4333 45.9511 65.7908 43.8759 62.226C43.8066 62.3257 43.7357 62.4077 43.6741 62.4745C42.4993 63.7367 40.3035 63.8391 37.9513 62.7549C35.1737 61.4688 32.4544 60.0805 29.8018 58.6034C19.0225 52.6041 9.25543 45.0509 0.670293 36.0808C0.465373 35.8718 0.35999 35.5816 0.35815 35.2921C0.368313 34.5543 0.701525 33.9139 1.29015 33.4883C2.34508 32.742 4.01515 32.8194 5.20961 33.2328C14.8032 36.5251 23.8369 41.2847 32.0618 47.3675C32.7056 47.845 33.4494 48.363 34.2361 48.9196C35.8271 50.0313 37.5946 51.276 39.2137 52.6138C37.0676 46.9743 36.0391 41.5338 36.1392 36.2197C36.2944 27.5703 39.4933 19.1118 42.3059 11.6457C42.4406 11.2893 42.7375 11.028 43.1081 10.9455C43.4745 10.8562 43.859 10.962 44.1329 11.2215C55.7724 22.2698 58.0143 42.1964 49.1287 55.6389C48.168 57.0949 46.8272 58.7989 44.8784 59.4496C47.0679 63.4396 49.8245 67.5427 53.1516 71.7942C55.0745 74.2543 57.1128 76.6888 59.1327 79.0786C59.1037 78.8811 59.0688 78.6591 59.0256 78.4237C58.4986 75.5849 57.4013 72.8694 57.1295 69.9736C56.6829 65.1526 58.6028 60.3378 61.4618 56.4154C64.3208 52.4929 68.0594 49.3221 71.7592 46.1943C74.8634 43.5715 77.9677 40.9487 81.0652 38.3301C82.9368 39.697 83.1349 42.414 82.8567 44.7266C82.1862 50.2391 79.8075 55.4168 76.9894 60.2044C73.5424 66.0617 69.3775 71.488 64.6314 76.3412C63.4972 77.5029 62.3034 78.9459 60.9585 79.8741C60.6498 80.0865 60.4003 80.2431 60.203 80.3481C60.5598 80.7713 60.9234 81.1902 61.2802 81.6134C65.5399 86.6113 69.9038 91.7314 73.7086 97.2492C73.7058 95.2536 74.1366 93.2016 74.5441 91.7456C75.5555 88.0635 77.6137 84.5873 80.3526 81.9499C86.7603 75.7728 95.7009 73.9423 102.068 73.492C102.607 73.4539 103.72 73.3744 104.537 74.1463C105.16 74.7404 105.688 75.8909 104.645 77.9701L98.6603 89.8647L98.6435 89.8377ZM38.9108 60.7088C40.4396 61.4188 41.6403 61.3594 42.0437 60.9375C42.1053 60.8707 42.135 60.7677 42.1647 60.6646C32.8408 53.6584 22.9422 47.2661 12.6907 41.6483L12.1383 41.3479C8.97361 39.6201 5.71232 37.8123 3.19548 35.181C3.11381 35.1854 3.02119 35.1872 2.95465 35.2008C13.3171 45.8689 25.3986 54.4457 38.9041 60.713L38.9108 60.7088ZM32.9479 50.7688C32.1393 50.207 31.3871 49.6756 30.7241 49.1821C27.318 46.6586 23.7657 44.3676 20.0933 42.3207C15.1042 39.5433 9.88516 37.2102 4.48309 35.3671C4.33925 35.3167 4.19705 35.284 4.05485 35.2513C6.44023 37.5806 9.47036 39.2428 12.4206 40.8519L12.9731 41.1524C23.1077 46.7027 32.9416 53.0513 42.1975 59.9783C42.1286 59.5808 41.9563 59.1075 41.6771 58.5981C40.1784 55.825 36.1753 53.0198 32.9546 50.7645L32.9479 50.7688ZM38.3928 36.2405C38.2993 41.2785 39.2704 46.4456 41.321 51.8261C41.084 42.757 40.7259 33.6138 40.2616 24.5561C39.2061 28.3784 38.4679 32.2737 38.397 36.2472L38.3928 36.2405ZM40.7395 22.8966C41.2705 32.9815 41.6765 43.1823 41.9271 53.2838C42.2728 54.1265 42.6513 54.9768 43.0584 55.8279C42.7022 51.9817 43.0082 47.8888 43.3131 43.8997C43.4207 42.5193 43.5207 41.1719 43.5928 39.8701C43.7451 37.0834 43.639 34.243 43.5344 31.4955C43.4648 29.5887 43.3928 27.6177 43.4058 25.6778C43.4299 21.9306 43.7747 18.1415 44.132 14.4478C44.0169 14.3231 43.9086 14.1941 43.7978 14.0761C42.7074 16.9826 41.6381 19.9228 40.7369 22.9075L40.7395 22.8966ZM44.645 15.0168C44.3134 18.5256 43.9901 22.123 43.9699 25.6803C43.9594 27.6092 44.0272 29.5734 44.1035 31.476C44.2056 34.2345 44.3133 37.0925 44.1602 39.908C44.0855 41.2208 43.9788 42.5724 43.882 43.9553C43.5354 48.4957 43.1893 53.1576 43.8258 57.4094L43.8679 57.4017C44.2318 57.3234 44.5647 57.1802 44.8859 56.9881C46.3466 53.3803 47.5576 49.6573 48.4598 45.8749C49.5779 41.1881 50.081 37.0653 49.994 33.2752C49.8854 28.636 48.8877 24.0294 47.8417 19.5564C46.9187 17.9506 45.8539 16.4338 44.6534 15.0303L44.645 15.0168ZM48.8526 21.454C49.7198 25.3078 50.4564 29.2529 50.5438 33.2397C50.6315 37.0762 50.1292 41.2454 48.9941 45.9804C48.1608 49.4664 47.0776 52.9123 45.7707 56.2547C46.3504 55.6941 46.8437 55.0095 47.2535 54.3867C53.5816 44.8087 53.8711 31.7147 48.8416 21.4515L48.8526 21.454ZM25.7754 83.0911C25.2482 83.1781 24.721 83.265 24.2022 83.3655C26.3485 84.2694 28.3177 85.2656 30.2323 86.2493C32.9709 87.6536 35.7962 89.1068 39.1323 90.2206C46.0293 92.523 53.1551 94.9069 60.4443 96.1661C63.2188 96.6477 65.8721 96.0145 67.9114 94.4537C67.7933 94.2184 67.6491 93.9712 67.4653 93.7208C54.3746 87.9246 40.0851 84.2872 25.7687 83.0953L25.7754 83.0911ZM34.2946 92.5433C39.745 94.9468 45.5691 97.3784 51.6189 98.3932C55.6717 99.0762 61.5031 99.4683 66.2392 97.4346C67.4814 96.899 68.1336 96.2741 68.1824 95.5683C68.1946 95.3919 68.1698 95.2011 68.1231 95.0054C65.9861 96.59 63.2141 97.2133 60.3454 96.7158C53.0191 95.4423 45.8647 93.0576 38.9526 90.7459C35.5794 89.6178 32.7282 88.1529 29.9744 86.7393C27.8387 85.6412 25.6331 84.5213 23.1915 83.5495C21.9626 83.8048 20.7547 84.0938 19.5475 84.4292C23.9625 87.8669 29.0443 90.2204 34.2904 92.5365L34.2946 92.5433ZM35.822 82.4515C33.2856 82.3831 30.7766 82.4945 28.3001 82.7636C41.4501 84.1153 54.5356 87.5048 66.6241 92.7295C65.8515 91.939 64.8792 91.1893 63.9234 90.6169C63.3719 90.2877 62.8246 89.9653 62.268 89.6581C54.2388 85.1873 45.1416 82.7087 35.8262 82.4582L35.822 82.4515ZM94.0591 77.2135C85.7626 82.569 79.6414 91.4544 77.5308 101.106C77.7939 101.288 78.0823 101.435 78.396 101.547C79.3547 99.8769 80.2108 98.102 81.0323 96.3769C82.5265 93.2452 84.0722 90.0154 86.3247 87.2893C91.1759 81.4137 96.0643 77.634 101.215 75.7996C99.0601 75.9981 96.6465 76.3685 94.1842 77.0225C94.1731 77.0951 94.1333 77.167 94.0591 77.2135ZM102.852 75.8694C97.2669 77.442 91.997 81.3017 86.7541 87.6482C84.5497 90.316 83.0158 93.5195 81.5402 96.6208C80.8059 98.1694 80.0436 99.7635 79.193 101.291C83.4579 99.178 86.952 95.7948 89.8325 92.7215C94.6947 87.5423 99.0656 81.8742 102.841 75.8669L102.852 75.8694ZM80.8014 101.857C85.125 101.573 90.658 97.8956 92.7205 95.3918C94.3272 93.4367 95.5122 91.0897 96.6507 88.8188L101.949 78.2928C98.4816 83.544 94.5535 88.5217 90.25 93.1066C87.3307 96.223 83.7649 99.6417 79.404 101.796C79.845 101.857 80.2978 101.892 80.8014 101.857ZM81.9172 83.5469C79.4736 85.9053 77.6276 89.014 76.7232 92.3102C75.61 96.3563 75.7305 99.5065 77.04 100.738C79.1439 91.4384 84.92 82.8726 92.7411 77.4309C88.918 78.6106 85.0721 80.5079 81.9172 83.5469Z" fill="#ACB1A0"/>
<path d="M26.3423 29.8855C26.0219 29.702 25.7202 29.4881 25.4438 29.2395C23.9981 27.9242 23.3205 25.7331 23.6392 23.3951C23.8269 21.9927 24.3203 20.8861 25.1051 20.1124C26.0587 19.1578 27.4443 18.8229 29.0027 19.158C31.1912 19.6321 33.3432 21.3295 34.0074 23.107C34.8624 25.4025 34.0739 28.1009 32.1334 29.5341C30.4704 30.7651 28.1138 30.8652 26.349 29.8813L26.3423 29.8855ZM31.8975 23.9057C31.5504 22.9701 30.0725 21.6937 28.5184 21.3653C27.9648 21.2439 27.2013 21.2071 26.6916 21.7145C26.2705 22.1381 25.9894 22.802 25.8728 23.7004C25.7057 24.9399 25.8996 26.6093 26.9598 27.5758C27.9729 28.4968 29.6809 28.5598 30.7958 27.729C31.9081 26.9091 32.3844 25.2319 31.8908 23.9099L31.8975 23.9057Z" fill="#ACB1A0"/>
<path d="M15.4422 25.3499C15.7109 25.9783 15.8501 26.5943 15.858 27.1802C15.9011 29.2254 14.297 31.1696 12.2208 31.6002C11.0517 31.8461 9.8029 31.6169 8.74187 31.026C8.08356 30.6608 7.49798 30.1561 7.02633 29.533C6.60171 28.9555 6.3211 28.3532 6.20384 27.7423C5.93596 26.3912 6.4547 24.903 7.54571 23.8528C8.92528 22.5277 10.5253 21.9646 12.0492 22.2744C13.5293 22.5741 14.7399 23.6619 15.4489 25.3456L15.4422 25.3499ZM13.6042 27.2345C13.6049 26.934 13.5206 26.6024 13.3733 26.2447C12.9505 25.2628 12.3113 24.6418 11.591 24.4935C10.8093 24.337 9.92115 24.6879 9.09592 25.487C8.56181 26.0003 8.29242 26.7132 8.40803 27.3064C8.46293 27.5908 8.60787 27.8843 8.83194 28.1845C9.53604 29.1212 10.7413 29.6122 11.7705 29.3977C12.7821 29.185 13.6288 28.1943 13.6109 27.2303L13.6042 27.2345Z" fill="#ACB1A0"/>
<path d="M17.8995 12.8183C17.2873 12.8742 16.64 12.8583 16.1146 12.541C15.4378 12.131 15.1166 11.2823 15.1572 10.4879C15.1978 9.69351 15.5497 8.94753 15.9571 8.26057C17.5689 5.58956 20.8018 8.70925 20.3502 10.9993C20.2795 11.3531 20.1406 11.7028 19.9135 11.986C19.4348 12.5583 18.6464 12.7529 17.9062 12.814L17.8995 12.8183Z" fill="#ACB1A0"/>
<path d="M4.94179 1.98731C5.0237 2.94865 4.40777 3.88836 3.56483 4.34221C2.99334 4.64451 2.27162 4.7504 1.70155 4.45167C1.46947 4.33472 1.27037 4.15017 1.1092 3.95122C0.51321 3.21864 0.331393 2.14182 0.744251 1.28264C1.64106 -0.592845 4.76155 -0.112622 4.94599 1.99406L4.94179 1.98731Z" fill="#ACB1A0"/>
</svg>
