<svg width="210" height="133" viewBox="0 0 210 133" fill="none" xmlns="http://www.w3.org/2000/svg">
<g id="Vector">
<path d="M55.3744 114.106C55.1375 107.501 56.7452 100.686 58.3022 94.0804C58.6987 92.3916 59.0945 90.7278 59.4445 89.0977C61.535 79.482 63.3452 67.0892 65.0943 55.0947C68.8484 29.4582 72.388 5.24053 79.0848 0.309067C79.5886 -0.0621338 80.2574 -0.103958 80.7967 0.210632C81.346 0.520523 81.648 1.11864 81.5806 1.74165C80.5692 11.9616 82.1508 22.4721 83.6722 32.6411C85.4092 44.1755 87.2048 56.1015 85.2931 67.8516C83.8699 76.6007 80.31 85.6715 74.379 95.5927C73.9555 96.296 73.4409 97.2267 72.8372 98.31C70.8158 101.954 68.7313 105.542 66.5944 108.513C73.9305 104.588 80.8798 100.599 87.4631 96.5087C86.2221 97.2248 84.9434 97.8597 83.6239 98.3537C83.1103 98.5447 82.5298 98.459 82.101 98.1174C81.906 97.9621 81.7421 97.7677 81.6387 97.5449C81.5166 97.2817 81.4699 96.9955 81.5033 96.6964C83.6295 77.8839 101.533 55.3268 113.457 40.3102C118.986 33.3374 125.284 26.4854 133.821 23.6136C134.425 23.405 135.102 23.5935 135.512 24.0795C135.917 24.5554 136.017 25.248 135.721 25.8298C128.22 40.7119 119.859 55.3557 110.873 69.3427L109.846 70.9444C104.581 79.174 97.6644 89.938 88.7816 95.6948C103.964 86.1905 117.177 76.2026 128.755 65.5254C128.277 65.1575 127.866 64.6964 127.603 64.1294C127.57 64.0585 127.538 63.9877 127.509 63.927C127.092 62.8409 127.185 61.6636 127.796 60.6755C135.414 48.3509 151.482 37.6559 163.218 29.8374L164.823 28.7664C165.545 28.2812 166.531 28.4729 167.008 29.2107C167.481 29.9384 167.299 30.9232 166.562 31.4031C164.638 32.6853 161.29 37.418 157.75 42.4254C150.189 53.0969 140.93 66.1517 132.421 66.435C128.398 70.2145 124.163 73.9084 119.731 77.5218C130.623 73.4744 144.181 71.9138 155.373 70.6338L156.833 70.4687C176.62 68.1879 194.174 70.1304 209.021 76.2231C209.69 76.5012 210.084 77.1918 209.985 77.9039C209.885 78.616 209.311 79.1803 208.601 79.266C196.773 80.6336 185.011 83.8676 173.632 86.997C159.34 90.922 144.57 94.9838 129.334 95.4689C125.105 95.5987 110.178 94.2876 107.632 88.7996C107.524 88.5667 107.437 88.3245 107.384 88.0781C107.299 87.7359 107.278 87.4004 107.277 87.0805C98.8794 93.1404 89.7994 99.0017 79.9868 104.688C84.9774 104.239 91.3945 104.269 98.8664 104.532C99.9167 104.571 100.783 104.609 101.386 104.611C109.862 104.762 119.795 105.402 129.202 108.937C135.617 111.346 141.468 115.004 147.138 118.538C152.657 121.982 158.356 125.552 164.445 127.842C165.081 128.074 165.492 128.695 165.463 129.374C165.444 130.049 164.994 130.641 164.35 130.844C152.778 134.433 145.375 132.807 138.199 131.222C133.926 130.275 129.89 129.391 125.108 129.681C114.362 130.333 103.604 129.45 93.1119 127.075C92.8792 127.024 73.136 122.297 69.2096 113.833C68.8009 112.952 68.5781 112.021 68.5505 111.06C66.218 112.311 63.8707 113.557 61.469 114.792C43.671 123.93 22.6037 132.909 1.37761 130.232C0.816528 130.162 0.368256 129.804 0.147507 129.329C0.0253906 129.065 -0.026062 128.769 0.0127106 128.455C0.126892 127.588 0.91156 126.975 1.77538 127.088C20.3603 129.424 39.0471 122.334 55.3788 114.301C55.3654 114.246 55.342 114.195 55.3387 114.135L55.3744 114.106ZM85.1515 94.2014C85.1543 94.1015 85.1672 93.9969 85.1849 93.9024C85.1618 94.0117 85.1388 94.121 85.1158 94.2304C85.1259 94.2257 85.1461 94.2162 85.1562 94.2115L85.1515 94.2014ZM115.881 42.3556C105.604 55.3076 88.8272 76.4507 85.197 93.8227C85.2201 93.7133 85.2532 93.5993 85.291 93.4953C91.0528 80.2154 98.5992 67.7889 107.692 56.5492C108.817 55.1602 109.962 53.7866 111.117 52.4084C113.159 49.9746 115.279 47.443 117.215 44.8613C118.179 43.5729 119.113 42.2487 120.052 40.9345C123.177 36.5157 126.404 31.9747 130.743 28.6886C130.806 28.5603 130.879 28.4272 130.943 28.299C125.043 31.4776 120.257 36.8461 115.881 42.3556ZM107.229 69.2235L108.256 67.6218C115.959 55.6395 123.168 43.1738 129.79 30.4772C126.239 33.5798 123.417 37.537 120.687 41.4017C119.742 42.7307 118.808 44.0549 117.849 45.3535C115.902 47.9648 113.778 50.4863 111.73 52.935C110.585 54.3085 109.436 55.6718 108.31 57.0608C99.2951 68.2027 91.8168 80.5111 86.0935 93.6621C94.8745 88.5074 101.922 77.522 107.224 69.2384L107.229 69.2235ZM155.768 73.7639C143.001 75.2259 127.119 77.0481 116.117 82.5023C113.1 83.9997 111.514 85.2713 110.86 86.1933L128.351 87.2042C131.749 87.4016 135.276 87.6126 138.742 87.5069C148.268 87.2164 157.67 84.593 166.761 82.0412C172.853 80.3375 179.152 78.5743 185.48 77.5118C190.111 76.7381 194.812 76.3263 199.501 76.289C187.035 72.7304 172.875 71.8001 157.228 73.5987L155.768 73.7639ZM129.279 92.2782C144.132 91.8127 158.725 87.7959 172.842 83.9162C182.107 81.3691 191.638 78.7593 201.307 77.1079C196.057 77.05 190.784 77.4213 185.607 78.2902C179.324 79.3439 173.046 81.0975 166.979 82.8019C157.852 85.3578 148.4 88.0048 138.775 88.2926C135.259 88.3969 131.722 88.1907 128.314 87.998L110.495 86.9681C110.476 87.0876 110.473 87.1875 110.495 87.288C111.112 89.9692 122.098 92.5076 129.294 92.2836L129.279 92.2782ZM68.2306 55.5501C66.4653 67.5891 64.6436 80.0364 62.5449 89.7669C62.1895 91.4118 61.7929 93.1007 61.3809 94.809C60.0215 100.596 58.6074 106.556 58.5172 112.217C58.6485 112.155 58.7804 112.069 58.9117 112.008C58.9801 111.705 59.039 111.381 59.0764 111.117C59.0961 110.948 59.1253 110.799 59.149 110.664C60.0809 105.546 62.1423 100.663 64.1294 95.9386C64.5513 94.9403 64.9631 93.9468 65.3748 92.9532C74.4669 70.7962 78.7777 46.4394 77.8544 22.5101L77.812 21.5442C77.6863 18.4116 77.5533 15.1837 78.2141 12.0774C78.1477 10.371 78.1109 8.67542 78.1441 6.97174C74.0155 16.0621 70.9818 36.8395 68.2353 55.5602L68.2306 55.5501ZM80.5744 33.1166C79.7733 27.786 78.9602 22.3503 78.4917 16.8889C78.458 18.4326 78.524 19.979 78.5805 21.5052L78.6229 22.471C79.5629 46.5158 75.2337 70.992 66.0891 93.2476C65.682 94.2513 65.2601 95.2495 64.8382 96.2478C62.9314 100.775 60.9605 105.455 60.006 110.313C72.5263 88.6839 79.8751 64.3849 81.4912 39.465C81.1925 37.3374 80.8838 35.2145 80.5595 33.1112L80.5744 33.1166ZM70.1202 96.7715C70.7347 95.6585 71.2702 94.6933 71.7092 93.9704C77.4257 84.4084 80.8607 75.704 82.2127 67.3579C83.4875 59.4545 82.9989 51.3532 82.0049 43.3281C79.9107 67.0053 72.6329 90.0265 60.7188 110.657C64.2363 107.324 68.1515 100.317 70.1249 96.7817L70.1202 96.7715ZM130.519 62.3343C130.41 62.4963 130.455 62.6724 130.492 62.7534C130.516 62.804 130.544 62.8648 130.597 62.9263C135.327 57.4363 140.662 52.3778 145.873 47.4509L153.067 40.6484C144.298 46.9681 135.448 54.3604 130.519 62.3343ZM155.216 40.5919C155.895 39.6457 156.529 38.7331 157.157 37.8604L146.369 48.0692C141.285 52.8746 136.057 57.8461 131.406 63.2131C138.411 64.2986 148.485 50.0864 155.216 40.5919ZM128.127 111.892C119.164 108.519 109.569 107.918 101.351 107.769C100.743 107.757 99.8574 107.728 98.7822 107.689C80.7078 107.037 74.6295 108.241 72.6653 109.333C74.2013 109.464 75.7514 109.627 77.2758 109.813C79.4112 110.071 81.6212 110.331 83.7157 110.448C88.338 110.689 93.0996 110.939 97.8083 111.472C106.535 112.454 115.055 114.421 123.741 116.507C131.64 118.406 139.577 120.387 147.408 122.404C146.771 122.012 146.134 121.62 145.508 121.223C139.97 117.763 134.246 114.193 128.127 111.892ZM71.7819 110.263C71.7582 110.398 71.7493 110.537 71.7504 110.672C72.6842 111.838 74.3392 112.517 75.9339 113.041C91.9204 118.28 108.536 121.006 125.585 123.555C136.085 125.125 146.711 126.624 157.234 128.036C154.665 126.736 152.169 125.303 149.735 123.817C141.083 121.567 132.316 119.359 123.561 117.256C114.9 115.171 106.404 113.23 97.7218 112.239C93.038 111.707 88.2764 111.457 83.679 111.217C81.5496 111.104 79.3395 110.844 77.1793 110.585C75.4214 110.373 73.6183 110.168 71.863 110.041C71.8259 110.12 71.7989 110.194 71.792 110.259L71.7819 110.263ZM93.8474 123.971C104.052 126.283 114.516 127.143 124.964 126.507C130.185 126.185 134.622 127.165 138.92 128.112C144.625 129.362 150.508 130.652 158.651 129.024C147.621 127.554 136.469 125.981 125.458 124.341C108.38 121.782 91.7142 119.054 75.6833 113.799C74.3502 113.363 72.9756 112.81 71.9331 111.967C73.6575 117.248 86.6782 122.346 93.8474 123.971Z" fill="#ACB1A0"/>
<path d="M144.273 62.0641C144.16 61.8211 144.092 61.5694 144.071 61.284C143.935 59.3763 146.024 58.2887 148.089 57.4704C152.76 55.6185 158.026 54.5725 162.259 53.7382C167.965 52.6092 173.81 51.8838 179.608 51.5618C182.951 51.378 183.743 53.1635 183.935 53.9483C184.086 54.5671 183.844 55.2102 183.34 55.5813C180.359 57.7889 176.912 59.1794 173.336 60.5313C165.314 63.5563 156.767 66.322 148.215 64.3102C147.185 64.0772 144.973 63.5473 144.288 62.0695L144.273 62.0641ZM178.68 54.7799C173.38 55.1154 168.074 55.8104 162.859 56.8329C158.751 57.6456 153.641 58.656 149.242 60.4053C148.703 60.6205 148.289 60.8141 147.98 60.9706C148.227 61.0523 148.539 61.1406 148.925 61.2311C156.62 63.0397 164.656 60.4149 172.219 57.5674C174.551 56.6864 176.712 55.8357 178.68 54.7799Z" fill="#ACB1A0"/>
</g>
</svg>
