<svg width="180" height="114" viewBox="0 0 180 114" fill="none" xmlns="http://www.w3.org/2000/svg">
<path d="M47.4637 97.805C47.2607 92.1437 48.6387 86.3026 49.9733 80.6403C50.3132 79.1928 50.6524 77.7667 50.9525 76.3695C52.7443 68.1274 54.2959 57.505 55.7951 47.2241C59.0129 25.2499 62.0468 4.49188 67.787 0.264908C68.2188 -0.0532608 68.7921 -0.089119 69.2543 0.180542C69.7251 0.446159 69.984 0.958824 69.9262 1.49284C69.0593 10.2528 70.415 19.2618 71.719 27.978C73.2079 37.8647 74.7469 48.087 73.1084 58.1585C71.8885 65.6577 68.8371 73.4327 63.7534 81.9366C63.3904 82.5394 62.9493 83.3372 62.4319 84.2657C60.6993 87.3892 58.9125 90.4642 57.0809 93.0108C63.369 89.6471 69.3255 86.2273 74.9684 82.7218C73.9046 83.3355 72.8086 83.8798 71.6777 84.3032C71.2374 84.4668 70.7398 84.3934 70.3722 84.1006C70.2052 83.9675 70.0646 83.8009 69.9761 83.6099C69.8714 83.3843 69.8314 83.139 69.86 82.8827C71.6824 66.7576 87.0279 47.423 97.2492 34.5516C101.988 28.5749 107.386 22.7018 114.704 20.2402C115.221 20.0615 115.802 20.223 116.153 20.6396C116.5 21.0475 116.586 21.6411 116.333 22.1398C109.903 34.8959 102.736 47.4478 95.034 59.4366L94.1538 60.8095C89.6407 67.8634 83.7123 77.0897 76.0985 82.0241C89.112 73.8775 100.437 65.3165 110.361 56.1646C109.952 55.8493 109.6 55.4541 109.374 54.9681C109.346 54.9073 109.318 54.8466 109.294 54.7945C108.936 53.8636 109.015 52.8545 109.539 52.0076C116.069 41.4436 129.842 32.2765 139.901 25.5749L141.277 24.6569C141.895 24.241 142.741 24.4054 143.15 25.0378C143.555 25.6615 143.399 26.5056 142.768 26.9169C141.118 28.016 138.249 32.0726 135.214 36.3646C128.733 45.5117 120.797 56.7015 113.504 56.9443C110.055 60.1839 106.425 63.35 102.626 66.4473C111.963 62.978 123.583 61.6404 133.177 60.5433L134.428 60.4017C151.388 58.4468 166.435 60.1117 179.161 65.3341C179.735 65.5725 180.072 66.1644 179.987 66.7748C179.901 67.3851 179.409 67.8688 178.801 67.9423C168.662 69.1145 158.581 71.8865 148.827 74.5689C136.577 77.9331 123.917 81.4147 110.857 81.8304C107.232 81.9417 94.4383 80.8179 92.2563 76.114C92.1637 75.9144 92.0885 75.7067 92.0432 75.4955C91.9703 75.2022 91.9528 74.9147 91.952 74.6404C84.7538 79.8346 76.9709 84.8586 68.5601 89.7327C72.8378 89.3478 78.3382 89.3733 84.7426 89.599C85.6429 89.6321 86.3851 89.6652 86.9019 89.6664C94.1675 89.7956 102.681 90.3444 110.745 93.3746C116.243 95.4395 121.258 98.5753 126.119 101.604C130.849 104.556 135.734 107.616 140.953 109.579C141.498 109.778 141.85 110.31 141.825 110.892C141.809 111.47 141.423 111.978 140.872 112.152C130.953 115.228 124.607 113.834 118.457 112.476C114.794 111.665 111.334 110.906 107.235 111.155C98.0241 111.714 88.803 110.957 79.8102 108.921C79.6107 108.877 62.688 104.826 59.3225 97.5708C58.9722 96.8157 58.7812 96.0178 58.7575 95.1945C56.7583 96.267 54.7463 97.3348 52.6877 98.3928C37.4323 106.226 19.3746 113.922 1.1808 111.627C0.699875 111.567 0.315628 111.261 0.126419 110.853C0.0217438 110.627 -0.0223541 110.373 0.0108795 110.104C0.108749 109.361 0.781326 108.836 1.52174 108.933C17.4517 110.935 33.469 104.858 47.4676 97.9722C47.4561 97.9248 47.436 97.8813 47.4332 97.8298L47.4637 97.805ZM72.987 80.744C72.9894 80.6584 73.0005 80.5687 73.0156 80.4877C72.9959 80.5815 72.9761 80.6752 72.9564 80.7689C72.9651 80.7649 72.9824 80.7568 72.991 80.7527L72.987 80.744ZM99.3266 36.3048C90.5178 47.4065 76.1376 65.5292 73.026 80.4194C73.0458 80.3257 73.0742 80.2279 73.1066 80.1388C78.0452 68.7561 84.5136 58.1048 92.3072 48.4708C93.2719 47.2802 94.2533 46.1028 95.2434 44.9215C96.9937 42.8354 98.8105 40.6654 100.47 38.4526C101.296 37.3482 102.097 36.2131 102.902 35.0868C105.58 31.2992 108.347 27.4069 112.065 24.5902C112.119 24.4803 112.182 24.3662 112.237 24.2563C107.18 26.9808 103.078 31.5823 99.3266 36.3048ZM91.9105 59.3344L92.7907 57.9616C99.3935 47.691 105.572 37.0061 111.249 26.1233C108.205 28.7826 105.786 32.1745 103.446 35.4872C102.636 36.6263 101.835 37.7613 101.014 38.8744C99.3445 41.1127 97.5238 43.274 95.7688 45.3729C94.7874 46.5501 93.8019 47.7187 92.8372 48.9093C85.1101 58.4594 78.7001 69.0095 73.7944 80.2818C81.321 75.8635 87.3616 66.4474 91.9059 59.3472L91.9105 59.3344ZM133.516 63.2262C122.572 64.4794 108.959 66.0412 99.5287 70.7162C96.9427 71.9998 95.5835 73.0897 95.023 73.8799L110.016 74.7464C112.928 74.9157 115.951 75.0965 118.922 75.006C127.087 74.7569 135.145 72.5083 142.938 70.321C148.16 68.8607 153.558 67.3494 158.983 66.4387C162.952 65.7755 166.981 65.4225 171.001 65.3905C160.316 62.3404 148.179 61.543 134.767 63.0846L133.516 63.2262ZM110.811 79.0956C123.541 78.6966 136.05 75.2537 148.15 71.9282C156.092 69.7449 164.262 67.5079 172.549 66.0925C168.049 66.0428 163.529 66.3611 159.092 67.1059C153.706 68.009 148.325 69.5121 143.124 70.973C135.302 73.1638 127.2 75.4327 118.95 75.6794C115.936 75.7688 112.904 75.592 109.983 75.4268L94.7096 74.5441C94.6939 74.6465 94.6915 74.7321 94.7104 74.8183C95.2391 77.1164 104.655 79.2922 110.824 79.1002L110.811 79.0956ZM58.4834 47.6143C56.9703 57.9335 55.4088 68.6026 53.6099 76.9431C53.3053 78.353 52.9654 79.8006 52.6122 81.2649C51.447 86.2248 50.2349 91.3334 50.1576 96.1859C50.2701 96.1332 50.3832 96.0592 50.4957 96.0065C50.5543 95.7468 50.6049 95.4696 50.6369 95.2434C50.6538 95.0982 50.6788 94.9704 50.6991 94.8552C51.4979 90.468 53.2648 86.2828 54.9681 82.233C55.3297 81.3774 55.6826 80.5258 56.0356 79.6742C63.8288 60.6824 67.5237 39.8052 66.7324 19.2944L66.696 18.4665C66.5882 15.7813 66.4742 13.0146 67.0406 10.3521C66.9837 8.88947 66.9522 7.43607 66.9806 5.97578C63.4419 13.7675 60.8415 31.5767 58.4874 47.623L58.4834 47.6143ZM69.0637 28.3856C68.3771 23.8166 67.6802 19.1574 67.2786 14.4762C67.2497 15.7993 67.3063 17.1249 67.3547 18.433L67.3911 19.2609C68.1967 39.8706 64.486 60.8503 56.6478 79.9265C56.2988 80.7868 55.9372 81.6424 55.5756 82.4981C53.9412 86.3784 52.2518 90.3899 51.4337 94.5538C62.1654 76.0148 68.4643 55.1871 69.8496 33.8271C69.5936 32.0035 69.329 30.1838 69.051 28.381L69.0637 28.3856ZM60.1031 82.947C60.6297 81.993 61.0888 81.1657 61.465 80.5461C66.3649 72.35 69.3092 64.8892 70.4681 57.7353C71.5607 50.961 71.1419 44.017 70.2899 37.1384C68.4949 57.4331 62.2568 77.1656 52.0447 94.849C55.0596 91.9917 58.4155 85.9861 60.1071 82.9557L60.1031 82.947ZM111.874 53.4294C111.78 53.5682 111.818 53.7192 111.851 53.7886C111.871 53.832 111.895 53.8841 111.94 53.9368C115.994 49.2312 120.567 44.8953 125.034 40.6722L131.2 34.8415C123.684 40.2584 116.099 46.5946 111.874 53.4294ZM133.042 34.7931C133.625 33.982 134.168 33.1998 134.706 32.4518L125.459 41.2022C121.102 45.3211 116.621 49.5823 112.634 54.1827C118.638 55.1131 127.273 42.9312 133.042 34.7931ZM109.823 95.9074C102.14 93.0161 93.9159 92.5009 86.8723 92.3734C86.3515 92.3636 85.592 92.3387 84.6704 92.305C69.1781 91.7462 63.9681 92.7783 62.2845 93.7137C63.6011 93.8267 64.9297 93.9657 66.2364 94.1255C68.0667 94.3467 69.9611 94.5697 71.7563 94.67C75.7183 94.8764 79.7996 95.0902 83.8356 95.5472C91.3161 96.3892 98.6189 98.0748 106.064 99.8628C112.835 101.491 119.637 103.189 126.35 104.918C125.804 104.582 125.258 104.246 124.721 103.905C119.974 100.94 115.068 97.8797 109.823 95.9074ZM61.5274 94.5115C61.507 94.6266 61.4994 94.7464 61.5004 94.8621C62.3007 95.8608 63.7193 96.4435 65.0862 96.8921C78.7889 101.383 93.0308 103.72 107.644 105.904C116.644 107.25 125.752 108.535 134.772 109.745C132.57 108.631 130.431 107.403 128.344 106.129C120.928 104.201 113.414 102.308 105.909 100.505C98.4853 98.7181 91.2033 97.0545 83.7615 96.2049C79.7468 95.7486 75.6655 95.5348 71.7249 95.329C69.8996 95.2322 68.0053 95.0092 66.1537 94.7874C64.6469 94.605 63.1014 94.4301 61.5968 94.3206C61.565 94.3882 61.5419 94.4519 61.536 94.5075L61.5274 94.5115ZM80.4407 106.261C89.1873 108.243 98.157 108.98 107.112 108.435C111.587 108.158 115.39 108.999 119.074 109.81C123.964 110.882 129.007 111.987 135.987 110.592C126.532 109.332 116.973 107.984 107.536 106.578C92.8968 104.385 78.6121 102.046 64.8714 97.5418C63.7288 97.1679 62.5505 96.6945 61.657 95.9718C63.1349 100.498 74.2956 104.868 80.4407 106.261Z" fill="#ACB1A0"/>
<path d="M123.662 53.1978C123.566 52.9895 123.508 52.7738 123.489 52.5291C123.373 50.894 125.163 49.9617 126.934 49.2603C130.937 47.673 135.45 46.7764 139.079 46.0613C143.97 45.0936 148.98 44.4718 153.95 44.1958C156.815 44.0382 157.494 45.5687 157.658 46.2414C157.788 46.7718 157.581 47.323 157.149 47.6411C154.593 49.5333 151.638 50.7252 148.574 51.884C141.698 54.4768 134.372 56.8474 127.041 55.123C126.159 54.9233 124.263 54.4692 123.675 53.2024L123.662 53.1978ZM153.154 46.9542C148.611 47.2417 144.064 47.8375 139.593 48.7139C136.072 49.4105 131.692 50.2766 127.922 51.776C127.459 51.9604 127.105 52.1264 126.84 52.2605C127.052 52.3305 127.319 52.4063 127.65 52.4838C134.246 54.034 141.134 51.7842 147.616 49.3435C149.615 48.5883 151.468 47.8592 153.154 46.9542Z" fill="#ACB1A0"/>
</svg>
