<svg width="220" height="162" viewBox="0 0 220 162" fill="none" xmlns="http://www.w3.org/2000/svg">
<path d="M117.007 63.2424C118.359 61.1786 119.75 59.0424 120.657 56.6319C121.807 53.5364 122.309 46.6954 120.188 42.4286C119.711 41.4615 119.118 40.6821 118.438 40.0768C124.303 39.9927 130.135 39.1406 135.763 37.5368C139.143 36.5732 144.051 34.8865 147.627 31.3854C148.039 30.9788 148.046 30.3228 147.639 29.911C147.575 29.8425 147.503 29.7884 147.431 29.7418C147.033 29.5073 146.508 29.5561 146.165 29.8912C143.672 32.3371 140.288 34.0749 135.189 35.5267C132.992 36.1538 130.771 36.6547 128.523 37.0441C128.779 36.8831 129.03 36.6702 129.246 36.3898C133.25 31.3177 117.251 24.8467 114.106 24.5056C113.974 24.4938 113.827 24.4815 113.713 24.5588C113.464 24.7275 113.613 25.1233 113.782 25.3723C115.077 27.2369 121.876 36.4974 126.47 37.3736C123.721 37.7611 120.949 37.9707 118.168 38.0031C115.114 38.0337 112.053 37.8429 108.996 37.5121C109.697 36.8277 110.298 35.6237 110.038 33.4839C109.394 28.2416 106.143 23.3766 103.52 20.2287C99.7274 15.6628 94.9454 12.0224 90.3671 8.68377C87.898 6.88308 85.3123 5.04161 82.594 3.41694C80.5553 2.19844 78.4387 1.10268 76.2337 0.225197C75.3459 -0.128939 74.6285 -0.0644244 74.0964 0.411845C73.5722 0.873628 73.4307 1.57679 73.6584 2.48403C74.9599 7.66723 77.0936 12.6644 79.9824 17.3476C84.7461 25.0652 91.293 31.5004 99.0163 36.0502C97.11 35.721 95.2119 35.37 93.3359 35.0197C89.4957 34.3088 85.531 33.5716 81.597 33.0197C77.2227 32.4016 73.1407 32.0881 69.3141 32.0708C69.3618 31.9691 69.3944 31.8744 69.4192 31.7941C69.8832 30.2684 68.9408 28.4598 66.974 27.0741C64.6468 25.4404 62.2649 23.9007 59.8429 22.4555C50.0033 16.5813 39.3898 12.2372 28.1919 9.49573C27.9287 9.42794 27.6468 9.47751 27.4138 9.60982C26.827 9.9589 26.4689 10.5221 26.4023 11.1909C26.2961 12.382 27.1374 13.6858 28.0261 14.4529C35.1421 20.6269 43.1733 25.6737 51.8881 29.4603C52.5714 29.756 53.3337 30.1134 54.1471 30.4871C55.7808 31.2496 57.6035 32.0922 59.4316 32.7727C53.9084 33.6573 49.0662 35.3463 44.852 37.8822C37.9891 42.0034 32.6994 48.4779 28.0252 54.184C27.8022 54.4568 27.7312 54.8157 27.838 55.1511C27.9374 55.4862 28.2016 55.7458 28.5374 55.8455C42.8269 60.0766 59.8505 52.6671 66.4832 39.328C67.2025 37.8846 67.9432 36.0217 67.5557 34.1578C71.7766 34.0703 76.3526 34.3856 81.3139 35.0897C84.1836 35.4954 87.0867 36.0054 89.9453 36.5213C89.7734 36.5893 89.5792 36.6639 89.3702 36.738C86.8481 37.6271 84.1588 38.0017 81.7101 39.1218C77.6361 40.9913 74.6712 44.7562 72.8601 48.862C71.0489 52.9677 70.2508 57.4318 69.4691 61.8448C68.8144 65.5468 68.1597 69.2488 67.5052 72.9434C69.4745 73.813 71.7455 72.7165 73.47 71.4247C77.5772 68.3395 80.6189 64.0389 83.1429 59.5662C86.2312 54.0947 88.6389 48.2465 90.3159 42.1969C90.7183 40.7503 91.3182 39.1259 91.435 37.6182C91.4613 37.2725 91.4704 36.9999 91.4626 36.7932C91.9684 36.8839 92.4739 36.9819 92.9797 37.0725C98.9746 38.1799 105.116 39.3144 111.316 39.8166C109.714 40.7364 108.27 42.0302 107.293 43.0299C104.812 45.5426 102.985 48.7999 102.148 52.2155C100.185 60.2097 102.889 68.2271 105.498 73.5425C105.719 73.9924 106.175 74.922 107.175 75.2209C107.942 75.4456 109.11 75.3372 110.291 73.5406L117.036 63.2434L117.007 63.2424ZM65.7811 28.7892C67.0636 29.6875 67.5762 30.678 67.4261 31.1965C67.4013 31.2768 67.3325 31.3482 67.2638 31.4197C57.2958 27.1782 47.5519 22.1921 38.2644 16.5649L37.7658 16.2607C34.9038 14.5206 31.9326 12.74 28.6486 11.937C28.6139 11.8695 28.5722 11.7944 28.5521 11.7347C41.9408 15.1172 54.4547 20.8448 65.7813 28.7819L65.7811 28.7892ZM55.0287 28.5993C54.2011 28.2103 53.4241 27.8525 52.7189 27.5487C49.1064 25.9827 45.612 24.192 42.2573 22.1921C37.7026 19.4736 33.3968 16.3653 29.3985 12.8839C29.291 12.7918 29.1985 12.6928 29.1059 12.5939C32.0865 13.4309 34.8331 15.0934 37.4998 16.7163L37.9984 17.0206C47.1774 22.5851 56.8561 27.5396 66.7288 31.7631C66.3779 31.8915 65.918 31.972 65.3793 31.9835C62.4566 32.0627 58.3395 30.148 55.0285 28.6067L55.0287 28.5993ZM45.9201 39.6803C49.916 37.2772 54.5122 35.6685 59.7833 34.8271C52.4009 38.8277 44.9026 42.7655 37.4232 46.5785C39.9956 43.9656 42.7745 41.5735 45.9275 39.6805L45.9201 39.6803ZM36.3155 47.7287C44.6496 43.4944 53.0183 39.1065 61.2348 34.6397C62.0718 34.5275 62.9302 34.4382 63.8026 34.3715C60.5524 35.863 57.4133 37.9998 54.3571 40.0877C53.3005 40.8119 52.2668 41.5147 51.2566 42.1741C49.0931 43.584 46.7662 44.8114 44.5143 45.9971C42.9529 46.8224 41.339 47.6754 39.7896 48.5822C36.7963 50.333 33.919 52.3606 31.124 54.354C30.9703 54.3193 30.8163 54.292 30.67 54.2577C32.4918 52.04 34.3504 49.8236 36.3231 47.7216L36.3155 47.7287ZM31.8195 54.5026C34.4783 52.6152 37.2119 50.6935 40.0548 49.0335C41.5965 48.1338 43.2031 47.2805 44.7642 46.4626C47.0237 45.2698 49.3656 44.0355 51.5517 42.6117C52.5695 41.9452 53.6034 41.235 54.6671 40.5184C58.146 38.1423 61.7226 35.7105 65.4287 34.2563L65.4422 34.2936C65.5492 34.6217 65.5897 34.9548 65.5855 35.3013C63.3742 38.1401 60.9541 40.8318 58.3422 43.3033C55.1058 46.3659 52.0348 48.6745 48.9552 50.3561C45.1847 52.4127 41.0256 53.7411 36.951 54.9691C35.2328 54.9706 33.5198 54.8175 31.8343 54.5031L31.8195 54.5026ZM38.9442 54.903C42.4389 53.8178 45.9458 52.5857 49.1833 50.8135C52.3004 49.1111 55.409 46.7816 58.676 43.6831C61.0824 41.4039 63.34 38.9427 65.4103 36.3499C65.2312 37.074 64.9125 37.7859 64.6043 38.4024C59.877 47.9043 49.5129 54.1871 38.937 54.8954L38.9442 54.903ZM77.5991 7.91032C77.4229 7.44724 77.2466 6.98415 77.0851 6.52156C78.8113 7.82548 80.5288 8.94475 82.2108 10.026C84.6146 11.5738 87.098 13.1685 89.5476 15.3298C94.6117 19.7982 99.8478 24.4124 104.258 29.6774C105.939 31.6803 106.669 34.1013 106.369 36.4583C106.125 36.4723 105.86 36.4708 105.574 36.4391C94.8183 28.617 85.2346 18.8358 77.5993 7.90295L77.5991 7.91032ZM89.1528 10.376C93.6231 13.6373 98.2902 17.1854 101.926 21.5691C104.365 24.5044 107.4 29.0008 107.979 33.7395C108.129 34.9834 107.933 35.7953 107.389 36.1606C107.254 36.2519 107.089 36.3201 106.91 36.3732C107.184 33.9268 106.39 31.4152 104.653 29.344C100.214 24.0559 94.9635 19.4191 89.885 14.9429C87.4066 12.7585 84.9017 11.1483 82.4834 9.59266C80.6065 8.38694 78.6795 7.13528 76.7611 5.62584C76.3924 4.52216 76.0606 3.41974 75.7663 2.29643C80.5826 4.24933 84.8407 7.23803 89.1455 10.3758L89.1528 10.376ZM81.7737 16.2645C80.5354 14.2616 79.4541 12.1976 78.5144 10.0867C85.7337 20.0102 94.5568 28.9401 104.386 36.2224C103.392 35.9679 102.337 35.5345 101.432 35.0323C100.911 34.742 100.397 34.452 99.891 34.1475C92.5601 29.773 86.3282 23.6212 81.781 16.2648L81.7737 16.2645ZM104.745 65.3986C105.169 56.269 109.437 47.2532 116.191 41.1004C116.46 41.2274 116.712 41.3907 116.949 41.5904C116.057 43.1312 115.033 44.6381 114.033 46.0942C112.219 48.7399 110.351 51.4722 109.216 54.5387C106.768 61.1451 106.018 66.8127 106.95 71.7918C106.104 69.9717 105.275 67.8645 104.651 65.5872C104.704 65.5447 104.743 65.4796 104.745 65.3986ZM107.77 73.0728C106.425 67.8661 107.061 61.8554 109.704 54.7172C110.814 51.7163 112.668 49.0056 114.466 46.3889C115.365 45.0843 116.287 43.7362 117.115 42.3481C117.411 46.7455 116.328 51.1116 115.208 54.8422C113.324 61.1356 110.818 67.2608 107.763 73.0652L107.77 73.0728ZM118.32 43.3765C120.109 46.9758 119.742 53.1134 118.697 55.9249C117.879 58.1171 116.55 60.1521 115.26 62.1147L109.292 71.2286C111.885 66.0207 114.043 60.5698 115.712 54.9992C116.848 51.2174 117.926 46.7774 117.619 42.2838C117.874 42.6094 118.113 42.9566 118.32 43.3765ZM104.159 52.7326C104.91 49.6827 106.541 46.7655 108.762 44.517C111.487 41.7543 114.069 40.3953 115.668 40.8765C109.192 46.8615 105.019 55.4528 104.305 64.2409C103.467 60.6291 103.194 56.6675 104.159 52.7326Z" fill="#ACB1A0"/>
<path d="M35.2021 32.9507C34.9055 32.7786 34.5932 32.6354 34.265 32.5286C32.5358 31.9767 30.4628 32.4457 28.7368 33.7817C27.6999 34.5803 27.0428 35.4874 26.7886 36.4744C26.468 37.6804 26.846 38.9466 27.8418 40.0418C29.2431 41.5782 31.6081 42.52 33.3433 42.2314C35.5828 41.8565 37.3785 39.9772 37.6223 37.7584C37.8334 35.8556 36.8141 33.919 35.2019 32.9581L35.2021 32.9507ZM32.9993 40.17C32.0871 40.3238 30.3741 39.7282 29.3858 38.6333C29.03 38.2454 28.6444 37.6499 28.8134 37.0067C28.9566 36.4732 29.3578 35.9409 30.0237 35.4322C30.9396 34.7255 32.3686 34.1096 33.6382 34.5133C34.8494 34.9004 35.6968 36.2413 35.5508 37.5195C35.4124 38.7906 34.2898 39.9477 32.9995 40.1626L32.9993 40.17Z" fill="#ACB1A0"/>
<path d="M26.4797 26.3033C27.109 26.2285 27.6678 26.0555 28.1412 25.7911C29.8013 24.8806 30.6118 22.6955 29.9883 20.8311C29.64 19.7798 28.8736 18.884 27.9048 18.3059C27.3047 17.9467 26.6269 17.7102 25.9072 17.6197C25.246 17.546 24.6322 17.5992 24.0876 17.7875C22.8793 18.1969 21.9281 19.3007 21.595 20.6611C21.1762 22.38 21.4712 23.9237 22.4306 25.0029C23.3615 26.0516 24.7985 26.52 26.4794 26.3107L26.4797 26.3033ZM27.1333 23.9581C26.8926 24.0976 26.5874 24.1832 26.2319 24.2303C25.2473 24.3449 24.4511 24.1192 23.9962 23.6099C23.5059 23.0552 23.3729 22.1806 23.6286 21.1495C23.791 20.4839 24.2369 19.9383 24.7666 19.7569C25.0202 19.6696 25.3232 19.6502 25.6684 19.6912C26.7479 19.8232 27.704 20.563 28.0123 21.4877C28.3137 22.3974 27.9143 23.5344 27.133 23.9655L27.1333 23.9581Z" fill="#ACB1A0"/>
<path d="M17.5781 34.0651C17.3372 33.5483 17.0225 33.0363 16.5229 32.7615C15.8784 32.4081 15.0481 32.5426 14.43 32.9423C13.812 33.3419 13.3781 33.9689 13.0173 34.6132C11.6277 37.1402 15.6375 38.2919 17.263 36.8714C17.5137 36.6512 17.7293 36.3782 17.8504 36.0652C18.0859 35.4168 17.8741 34.6944 17.5778 34.0725L17.5781 34.0651Z" fill="#ACB1A0"/>
<path d="M2.84786 28.6763C3.65691 28.2977 4.123 27.3694 4.09362 26.4836C4.06938 25.8855 3.81755 25.2577 3.31204 24.9384C3.10999 24.8063 2.86911 24.7319 2.63439 24.6945C1.76892 24.555 0.820669 24.9067 0.324388 25.6349C-0.760995 27.2209 1.07999 29.502 2.85523 28.6765L2.84786 28.6763Z" fill="#ACB1A0"/>
<path d="M131.95 72.5491C133.206 70.4254 134.509 68.2345 136.273 66.3578C138.544 63.96 144.462 60.4926 149.227 60.5145C150.305 60.5156 151.266 60.7044 152.11 61.048C149.598 55.747 147.791 50.1372 146.748 44.3785C146.122 40.92 145.471 35.7708 147.037 31.0177C147.22 30.4688 147.805 30.173 148.354 30.3563C148.444 30.3836 148.524 30.4243 148.598 30.4685C148.984 30.722 149.172 31.2149 149.022 31.6706C147.927 34.9868 147.859 38.7902 148.806 44.0074C149.211 46.2551 149.742 48.4699 150.383 50.6586C150.415 50.3577 150.495 50.0391 150.652 49.7217C153.438 43.891 166.302 55.396 167.995 58.0679C168.064 58.1815 168.14 58.308 168.12 58.4437C168.079 58.7416 167.658 58.7824 167.36 58.7409C165.116 58.4015 153.806 56.3838 150.993 52.647C151.858 55.2848 152.892 57.8653 154.09 60.3756C155.409 63.1299 156.931 65.7931 158.576 68.3904C158.881 67.4592 159.696 66.389 161.732 65.6789C166.72 63.9441 172.52 64.7167 176.502 65.6826C182.273 67.0725 187.649 69.7587 192.665 72.3951C195.37 73.8169 198.163 75.3254 200.82 77.0485C202.813 78.3408 204.73 79.7571 206.49 81.3491C207.199 81.9896 207.458 82.662 207.265 83.3496C207.082 84.0238 206.513 84.4609 205.598 84.6566C200.372 85.7745 194.947 86.0636 189.469 85.5363C180.442 84.6648 171.779 81.6273 164.289 76.7024C165.425 78.268 166.578 79.8168 167.719 81.346C170.051 84.479 172.461 87.7121 174.692 90.9994C177.176 94.6526 179.257 98.1779 180.961 101.605C181.031 101.517 181.101 101.446 181.163 101.388C182.327 100.299 184.366 100.347 186.477 101.501C188.97 102.869 191.402 104.328 193.767 105.864C203.379 112.104 211.959 119.714 219.358 128.555C219.535 128.761 219.615 129.036 219.599 129.303C219.544 129.984 219.197 130.554 218.626 130.908C217.604 131.529 216.063 131.349 214.982 130.89C206.303 127.226 198.231 122.244 190.989 116.093C190.422 115.61 189.765 115.083 189.071 114.518C187.666 113.388 186.106 112.124 184.689 110.784C186.331 116.131 186.951 121.221 186.534 126.122C185.862 134.099 182.384 141.702 179.324 148.414C179.178 148.734 178.887 148.956 178.539 149.008C178.194 149.067 177.845 148.944 177.607 148.687C167.508 137.728 166.65 119.182 175.696 107.346C176.674 106.064 178.019 104.577 179.863 104.103C178.08 100.276 175.779 96.3085 172.959 92.1664C171.329 89.7698 169.591 87.3893 167.867 85.0513C167.882 85.2355 167.901 85.4427 167.926 85.6629C168.241 88.3186 169.091 90.8975 169.165 93.5892C169.284 98.0701 167.213 102.391 164.327 105.828C161.441 109.264 157.786 111.949 154.17 114.597C151.137 116.817 148.103 119.038 145.076 121.255C143.427 119.871 143.409 117.349 143.808 115.232C144.766 110.185 147.284 105.558 150.185 101.32C153.733 96.1352 157.92 91.395 162.61 87.2218C163.731 86.2227 164.924 84.9678 166.226 84.198C166.524 84.0219 166.765 83.8936 166.954 83.8094C166.649 83.3955 166.339 82.985 166.034 82.571C162.396 77.6791 158.669 72.6675 155.484 67.3251C155.365 69.168 154.841 71.0349 154.375 72.3529C153.214 75.6874 151.096 78.7637 148.4 81.0212C142.091 86.309 133.703 87.4185 127.782 87.4207C127.28 87.4208 126.245 87.4219 125.536 86.656C124.996 86.067 124.578 84.9703 125.669 83.118L131.936 72.5231L131.95 72.5491ZM185.464 103.328C184.092 102.573 182.977 102.55 182.578 102.913C182.517 102.971 182.483 103.064 182.449 103.158C190.652 110.233 199.425 116.779 208.571 122.633L209.064 122.946C211.888 124.747 214.797 126.628 216.966 129.222C217.041 129.223 217.127 129.227 217.19 129.219C208.249 118.694 197.589 109.99 185.47 103.325L185.464 103.328ZM190.377 112.894C191.091 113.466 191.755 114.005 192.338 114.504C195.337 117.056 198.485 119.402 201.76 121.531C206.208 124.42 210.897 126.913 215.785 128.966C215.915 129.022 216.045 129.061 216.174 129.101C214.109 126.795 211.405 125.063 208.772 123.386L208.279 123.072C199.237 117.288 190.522 110.787 182.377 103.789C182.416 104.161 182.547 104.609 182.774 105.097C183.992 107.756 187.527 110.606 190.37 112.898L190.377 112.894ZM184.449 125.957C184.843 121.31 184.26 116.476 182.69 111.374C182.356 119.764 182.129 128.23 182.005 136.625C183.216 133.164 184.137 129.615 184.445 125.95L184.449 125.957ZM181.462 138.126C181.586 128.779 181.833 119.333 182.218 109.989C181.95 109.188 181.651 108.378 181.327 107.566C181.421 111.141 180.888 114.9 180.362 118.564C180.178 119.832 180.003 121.07 179.857 122.267C179.546 124.83 179.471 127.46 179.4 130.004C179.348 131.769 179.294 133.594 179.163 135.385C178.912 138.843 178.362 142.32 177.805 145.708C177.904 145.83 177.996 145.956 178.092 146.072C179.279 143.459 180.448 140.814 181.465 138.116L181.462 138.126ZM177.365 145.149C177.886 141.93 178.405 138.629 178.641 135.346C178.769 133.565 178.826 131.747 178.872 129.985C178.946 127.431 179.021 124.785 179.334 122.195C179.484 120.988 179.665 119.746 179.839 118.476C180.437 114.306 181.042 110.023 180.713 106.056L180.673 106.06C180.332 106.109 180.015 106.219 179.706 106.376C178.133 109.612 176.785 112.972 175.719 116.406C174.397 120.661 173.68 124.435 173.529 127.941C173.346 132.232 173.988 136.551 174.683 140.749C175.44 142.292 176.333 143.762 177.358 145.136L177.365 145.149ZM173.863 138.931C173.296 135.316 172.855 131.625 173.018 127.938C173.171 124.39 173.891 120.572 175.23 116.274C176.215 113.109 177.428 109.997 178.842 106.995C178.271 107.476 177.773 108.076 177.355 108.624C170.912 117.058 169.845 129.13 173.873 138.934L173.863 138.931ZM198.99 83.5131C199.484 83.4671 199.977 83.421 200.463 83.3619C198.532 82.3878 196.77 81.34 195.057 80.3072C192.608 78.8325 190.082 77.3071 187.062 76.0618C180.818 73.4876 174.367 70.8233 167.697 69.187C165.158 68.562 162.663 68.9743 160.68 70.2831C160.775 70.5081 160.893 70.7457 161.048 70.9889C172.812 77.1917 185.817 81.4789 198.997 83.5097L198.99 83.5131ZM191.682 74.2313C186.783 71.6577 181.54 69.0339 176.002 67.7038C172.292 66.8098 166.918 66.0688 162.41 67.6392C161.227 68.053 160.585 68.5877 160.497 69.2362C160.475 69.3984 160.486 69.5761 160.518 69.7599C162.593 68.4355 165.197 68.04 167.822 68.6858C174.526 70.3378 181.003 73.0046 187.26 75.5883C190.314 76.8492 192.863 78.3872 195.326 79.8715C197.236 81.0242 199.209 82.2017 201.41 83.2577C202.563 83.1018 203.699 82.9134 204.837 82.6821C200.96 79.2208 196.4 76.7174 191.685 74.2378L191.682 74.2313ZM189.651 83.4511C191.995 83.679 194.324 83.7392 196.633 83.6515C184.543 81.549 172.637 77.5689 161.766 71.9589C162.433 72.7391 163.287 73.4946 164.137 74.0853C164.628 74.425 165.115 74.7583 165.611 75.0781C172.77 79.7282 181.04 82.608 189.648 83.4445L189.651 83.4511ZM135.423 84.5044C143.43 80.098 149.639 72.2906 152.182 63.5156C151.949 63.3305 151.691 63.1758 151.408 63.0515C150.418 64.5317 149.518 66.1151 148.652 67.6548C147.077 70.4496 145.449 73.3316 143.198 75.7026C138.348 80.8132 133.592 83.9859 128.712 85.3452C130.719 85.3018 132.976 85.1167 135.295 84.6727C135.31 84.6063 135.351 84.5426 135.423 84.5044ZM127.201 85.1743C132.467 84.085 137.581 80.8632 142.822 75.3433C145.026 73.023 146.641 70.1645 148.196 67.3965C148.971 66.0143 149.774 64.5917 150.654 63.2363C146.578 64.9106 143.136 67.8077 140.282 70.4585C135.465 74.9253 131.073 79.8754 127.211 85.1773L127.201 85.1743ZM149.2 62.6089C145.181 62.5903 139.834 65.627 137.772 67.805C136.165 69.5061 134.925 71.5964 133.732 73.6195L128.185 82.9952C131.715 78.3713 135.656 74.03 139.919 70.0758C142.812 67.3877 146.322 64.4624 150.49 62.756C150.086 62.6711 149.668 62.6097 149.2 62.6089ZM147.049 79.4448C149.455 77.4258 151.354 74.6751 152.392 71.69C153.67 68.0261 153.751 65.1093 152.614 63.8866C150.098 72.3378 144.228 79.8724 136.656 84.3893C140.267 83.5483 143.943 82.0462 147.049 79.4448Z" fill="#ACB1A0"/>
<path d="M195.216 132.608C195.501 132.798 195.767 133.015 196.008 133.263C197.266 134.571 197.759 136.638 197.321 138.777C197.062 140.06 196.538 141.049 195.764 141.713C194.823 142.532 193.52 142.752 192.098 142.341C190.101 141.761 188.212 140.054 187.706 138.369C187.055 136.194 187.95 133.753 189.833 132.556C191.448 131.527 193.636 131.588 195.209 132.611L195.216 132.608ZM189.708 137.769C189.972 138.655 191.262 139.93 192.681 140.334C193.186 140.482 193.89 140.566 194.393 140.13C194.809 139.767 195.11 139.172 195.272 138.35C195.503 137.216 195.425 135.662 194.503 134.7C193.621 133.784 192.044 133.615 190.961 134.31C189.882 134.995 189.338 136.512 189.715 137.765L189.708 137.769Z" fill="#ACB1A0"/>
<path d="M205.029 137.504C204.818 136.906 204.727 136.329 204.756 135.787C204.84 133.896 206.444 132.204 208.392 131.942C209.49 131.791 210.632 132.083 211.578 132.698C212.165 133.078 212.676 133.582 213.074 134.188C213.432 134.749 213.655 135.323 213.726 135.895C213.892 137.16 213.321 138.501 212.247 139.4C210.889 140.534 209.373 140.95 207.982 140.565C206.63 140.192 205.576 139.109 205.022 137.508L205.029 137.504ZM206.845 135.883C206.826 136.161 206.884 136.472 206.998 136.812C207.33 137.746 207.884 138.361 208.541 138.545C209.255 138.741 210.099 138.474 210.912 137.79C211.437 137.351 211.73 136.71 211.659 136.154C211.626 135.888 211.51 135.608 211.321 135.316C210.726 134.405 209.64 133.874 208.675 134.005C207.725 134.136 206.881 134.995 206.839 135.887L206.845 135.883Z" fill="#ACB1A0"/>
<path d="M201.989 148.917C202.559 148.905 203.157 148.961 203.624 149.289C204.225 149.711 204.471 150.516 204.385 151.247C204.299 151.978 203.927 152.644 203.508 153.251C201.853 155.613 199.051 152.522 199.609 150.437C199.696 150.115 199.846 149.801 200.073 149.554C200.551 149.057 201.293 148.928 201.982 148.92L201.989 148.917Z" fill="#ACB1A0"/>
<path d="M213.322 159.76C213.304 158.867 213.932 158.039 214.74 157.675C215.288 157.433 215.962 157.382 216.472 157.695C216.679 157.818 216.852 158.001 216.989 158.195C217.496 158.911 217.599 159.917 217.164 160.683C216.219 162.357 213.36 161.711 213.318 159.753L213.322 159.76Z" fill="#ACB1A0"/>
</svg>
