<svg width="60" height="60" viewBox="0 0 60 60" fill="none" xmlns="http://www.w3.org/2000/svg">
<circle cx="30" cy="30" r="30" fill="#E9DACC"/>
<path d="M21.5214 40.3151C19.0981 41.9784 15.9547 43.0118 12.4347 43.3018C12.1747 43.3251 11.9814 43.5518 12.0014 43.8118C12.0214 44.0585 12.2281 44.2451 12.4714 44.2451C12.4847 44.2451 12.4981 44.2451 12.5114 44.2451C16.1981 43.9418 19.4981 42.8518 22.0581 41.0951C24.8481 39.1818 26.8014 36.4318 27.5048 33.4685C28.9548 34.9918 30.9781 36.1318 33.2747 36.6951C34.5114 36.9985 35.8247 37.1484 37.2414 37.1484C38.2214 37.1484 39.2547 37.0751 40.3414 36.9318C41.8314 36.7318 43.6814 36.3585 45.1881 35.2885C45.3814 35.4251 45.6147 35.5285 45.8947 35.5985C46.0947 35.6485 46.2881 35.6751 46.4747 35.6751C46.7614 35.6751 47.0248 35.6151 47.2548 35.4918C48.0548 35.0685 48.3081 34.0985 48.1481 33.3585C47.9814 32.6018 47.4247 32.1051 46.6914 32.0651C45.8881 32.0118 45.0281 32.5818 44.6814 33.3718C44.5081 33.7685 44.4881 34.1751 44.6181 34.5418C43.2781 35.4818 41.5881 35.8184 40.2181 36.0018C37.6781 36.3418 35.4814 36.2685 33.5014 35.7851C31.6848 35.3418 30.0614 34.5085 28.7981 33.4051C29.6447 33.5618 30.5347 33.6518 31.4714 33.6518C31.5114 33.6518 31.5547 33.6518 31.5981 33.6518C34.1447 33.6318 36.4381 33.0184 38.2314 31.8751C40.0914 30.6884 42.8081 28.0218 43.2481 25.6718C43.4447 25.6651 43.6314 25.6251 43.7914 25.5385C44.3148 25.2618 44.5947 24.6018 44.4547 23.9718C44.3314 23.4051 43.9081 23.0318 43.3547 23.0018C42.7614 22.9651 42.1381 23.3751 41.8847 23.9485C41.6747 24.4251 41.7681 24.9251 42.1347 25.2818C42.1914 25.3385 42.2614 25.3785 42.3281 25.4218C42.0047 27.4785 39.4081 30.0018 37.7181 31.0785C36.0747 32.1285 33.9514 32.6918 31.5814 32.7084C31.0481 32.7118 30.5381 32.6818 30.0381 32.6318C30.9781 32.4651 31.9614 32.1451 32.9214 31.6818C33.8014 31.2518 34.9347 30.6518 35.9014 29.7885C37.4281 28.4251 38.4114 26.5118 38.6514 24.4818C38.8181 24.4518 38.9781 24.4084 39.1214 24.3351C39.9214 23.9084 40.1747 22.9418 40.0147 22.2051C39.8481 21.4485 39.2914 20.9518 38.5614 20.9085C37.7681 20.8651 36.8981 21.4251 36.5481 22.2151C36.2681 22.8485 36.3914 23.5118 36.8781 23.9818C37.0881 24.1884 37.3614 24.3318 37.7114 24.4251C37.4881 26.2051 36.6214 27.8851 35.2747 29.0818C34.3947 29.8651 33.3347 30.4285 32.5114 30.8285C31.2747 31.4318 29.9981 31.7718 28.8748 31.8151C30.1014 30.4484 30.7881 28.6918 31.3047 27.0951C31.8747 25.3385 32.3214 23.5284 32.6414 21.7084C32.7314 21.6851 32.8147 21.6551 32.8947 21.6118C33.4181 21.3351 33.6981 20.6751 33.5614 20.0451C33.4381 19.4784 33.0148 19.1051 32.4614 19.0718C31.8648 19.0418 31.2447 19.4451 30.9914 20.0185C30.7814 20.4951 30.8747 20.9951 31.2414 21.3551C31.3614 21.4718 31.5181 21.5551 31.6947 21.6218C31.3814 23.3718 30.9514 25.1118 30.4047 26.8018C29.8281 28.5918 29.0248 30.5885 27.4614 31.8585C27.4448 31.8718 27.4314 31.8885 27.4181 31.9051C26.7648 28.4985 27.1081 24.5185 28.3914 20.6518C28.4147 20.6518 28.4414 20.6551 28.4647 20.6551C28.7514 20.6551 29.0147 20.5951 29.2447 20.4718C30.0447 20.0451 30.2981 19.0785 30.1381 18.3385C29.9714 17.5818 29.4147 17.0851 28.6847 17.0451C27.8847 16.9984 27.0214 17.5618 26.6714 18.3518C26.3914 18.9851 26.5148 19.6485 26.9981 20.1185C27.1281 20.2451 27.2881 20.3485 27.4714 20.4318C26.2547 24.1285 25.8647 27.9318 26.3514 31.2851C25.3747 30.4951 24.7947 29.2485 24.4647 28.2418C23.5914 25.5751 23.6048 22.6518 24.4981 19.9918C24.6381 19.9718 24.7681 19.9384 24.8881 19.8751C25.4114 19.5984 25.6914 18.9385 25.5547 18.3085C25.4314 17.7418 25.0081 17.3684 24.4547 17.3351C23.8581 17.3018 23.2381 17.7085 22.9847 18.2818C22.7747 18.7585 22.8681 19.2585 23.2347 19.6151C23.3247 19.7018 23.4314 19.7718 23.5514 19.8318C22.6447 22.6451 22.6447 25.7218 23.5681 28.5318C23.7714 29.1485 24.0614 29.8485 24.4647 30.5051C23.2447 29.5785 22.2281 28.3851 21.5181 27.0218C20.3414 24.7551 20.0481 22.0718 20.6947 19.6051C20.9614 19.5984 21.2114 19.5418 21.4247 19.4285C22.2247 19.0018 22.4781 18.0351 22.3181 17.2985C22.1514 16.5418 21.5947 16.0451 20.8647 16.0018C20.0681 15.9618 19.2014 16.5185 18.8514 17.3085C18.5714 17.9418 18.6947 18.6051 19.1814 19.0751C19.3381 19.2285 19.5314 19.3451 19.7647 19.4384C19.0881 22.1118 19.4147 25.0084 20.6847 27.4584C21.8214 29.6484 23.6847 31.4251 25.9047 32.4818C23.7314 32.5984 21.5281 32.1418 19.6747 31.1484C17.4514 29.9584 15.6647 28.0551 14.5981 25.7751C14.6181 25.7651 14.6381 25.7618 14.6581 25.7518C15.1814 25.4751 15.4614 24.8151 15.3214 24.1851C15.1981 23.6185 14.7747 23.2451 14.2247 23.2151C13.6281 23.1785 13.0081 23.5885 12.7548 24.1618C12.5448 24.6385 12.6381 25.1385 13.0048 25.4951C13.1514 25.6385 13.3347 25.7385 13.5681 25.8085C14.6981 28.4385 16.7081 30.6318 19.2314 31.9818C21.4081 33.1451 24.0247 33.6351 26.5581 33.3818C25.8847 36.0685 24.0847 38.5651 21.5281 40.3218L21.5214 40.3151ZM45.5414 33.7451C45.7281 33.3185 46.2181 32.9918 46.6347 33.0018C47.0447 33.0251 47.1781 33.3585 47.2214 33.5551C47.3047 33.9351 47.1881 34.4485 46.8081 34.6518C46.6014 34.7618 46.3214 34.7251 46.1214 34.6751C46.0147 34.6485 45.9247 34.6151 45.8481 34.5785C45.8581 34.4585 45.8181 34.3318 45.7347 34.2351C45.6647 34.1551 45.5747 34.1118 45.4814 34.0918C45.4714 33.9951 45.4848 33.8818 45.5448 33.7451H45.5414ZM42.7514 24.3151C42.8448 24.1018 43.1347 23.9251 43.3014 23.9285C43.3514 23.9285 43.4814 23.9385 43.5314 24.1585C43.5714 24.3451 43.5114 24.6018 43.3481 24.6884C43.2781 24.7251 43.1614 24.7251 43.0181 24.6884C42.8881 24.6551 42.8248 24.6151 42.7948 24.5851C42.7381 24.5318 42.6848 24.4585 42.7514 24.3085V24.3151ZM37.4114 22.5818C37.5947 22.1685 38.0681 21.8385 38.4647 21.8385C38.4781 21.8385 38.4914 21.8385 38.5048 21.8385C38.9148 21.8618 39.0481 22.1951 39.0914 22.3918C39.1747 22.7718 39.0581 23.2851 38.6781 23.4851C38.5747 23.5385 38.4548 23.5585 38.3348 23.5585C38.3081 23.5518 38.2881 23.5418 38.2614 23.5385C38.2414 23.5385 38.2214 23.5451 38.2014 23.5485C38.1281 23.5385 38.0547 23.5285 37.9914 23.5118C37.7847 23.4618 37.6314 23.3851 37.5347 23.2918C37.4581 23.2184 37.2281 22.9951 37.4114 22.5818ZM31.8581 20.3918C31.9481 20.1851 32.1981 20.0051 32.3914 20.0051C32.3981 20.0051 32.4014 20.0051 32.4081 20.0051C32.4581 20.0051 32.5881 20.0151 32.6381 20.2351C32.6781 20.4218 32.6181 20.6785 32.4514 20.7651C32.3847 20.8018 32.2648 20.8018 32.1248 20.7651C31.9914 20.7318 31.9314 20.6918 31.9047 20.6651C31.8481 20.6085 31.7947 20.5385 31.8614 20.3885L31.8581 20.3918ZM27.5381 18.7251C27.7247 18.2985 28.2247 17.9684 28.6314 17.9818C29.0414 18.0051 29.1747 18.3385 29.2181 18.5351C29.3014 18.9151 29.1847 19.4285 28.8047 19.6318C28.5981 19.7418 28.3181 19.7085 28.1181 19.6551C27.9114 19.6051 27.7581 19.5285 27.6581 19.4351C27.5814 19.3618 27.3547 19.1385 27.5347 18.7251H27.5381ZM23.8547 18.6585C23.9481 18.4451 24.1781 18.2718 24.4047 18.2718C24.4547 18.2718 24.5847 18.2818 24.6347 18.5018C24.6747 18.6884 24.6147 18.9451 24.4481 19.0318C24.3814 19.0685 24.2581 19.0685 24.1214 19.0318C23.9914 18.9985 23.9281 18.9585 23.8981 18.9318C23.8414 18.8785 23.7881 18.8051 23.8547 18.6551V18.6585ZM19.7181 17.6851C19.9047 17.2585 20.3914 16.9285 20.8114 16.9418C21.2214 16.9651 21.3547 17.2985 21.3981 17.4951C21.4814 17.8751 21.3647 18.3885 20.9847 18.5885C20.7781 18.6985 20.4981 18.6651 20.2981 18.6151C20.0914 18.5618 19.9381 18.4885 19.8381 18.3951C19.7614 18.3218 19.5347 18.0985 19.7147 17.6851H19.7181ZM13.6181 24.5385C13.7114 24.3251 13.9648 24.1551 14.1681 24.1518C14.2181 24.1518 14.3481 24.1618 14.3981 24.3818C14.4381 24.5685 14.3781 24.8251 14.2114 24.9118C14.1448 24.9485 14.0214 24.9485 13.8847 24.9118C13.7514 24.8785 13.6881 24.8385 13.6581 24.8085C13.6014 24.7551 13.5481 24.6818 13.6147 24.5318L13.6181 24.5385Z" fill="#7B837B"/>
</svg>
